<?xml version="1.0" standalone="no"?>
<!DOCTYPE svg PUBLIC "-//W3C//DTD SVG 20010904//EN"
 "http://www.w3.org/TR/2001/REC-SVG-20010904/DTD/svg10.dtd">
<svg version="1.0" xmlns="http://www.w3.org/2000/svg"
 width="600.000000pt" height="600.000000pt" viewBox="0 0 600.000000 600.000000"
 preserveAspectRatio="xMidYMid meet">
<metadata>
Created by potrace 1.11, written by Peter Selinger 2001-2013
</metadata>
<g transform="translate(0.000000,600.000000) scale(0.100000,-0.100000)"
fill="#000000" stroke="none">
<path d="M23 5992 l-23 -3 0 -662 1 -662 87 -106 c48 -58 134 -163 192 -233
58 -71 117 -142 131 -160 15 -17 104 -125 199 -241 95 -115 189 -230 210 -255
34 -41 264 -322 364 -445 23 -27 43 -52 46 -55 3 -3 18 -21 34 -40 15 -19 43
-53 62 -75 18 -22 79 -97 136 -166 57 -69 173 -211 258 -314 85 -104 211 -256
279 -339 68 -83 138 -169 156 -191 75 -90 307 -372 463 -564 92 -112 178 -216
191 -230 13 -14 55 -66 94 -114 67 -84 71 -87 87 -70 9 10 88 104 175 208 171
205 257 307 265 315 3 3 75 88 160 190 85 102 164 196 175 209 11 13 32 38 46
55 31 36 209 248 354 422 55 65 104 124 110 130 5 6 28 32 50 59 36 43 74 89
139 165 11 14 43 52 71 85 27 33 52 62 55 65 3 3 39 46 80 95 41 50 137 164
213 255 77 91 147 174 156 185 70 85 563 671 601 715 26 30 69 82 96 115 26
33 51 62 54 65 3 3 30 34 59 70 30 36 57 67 60 70 4 3 22 24 40 48 l34 43 1
680 1 679 -25 1 c-101 2 -5920 3 -5937 1z"/>
</g>
</svg>
