<svg xmlns="http://www.w3.org/2000/svg" viewBox="0 0 459.754 350.074" preserveAspectRatio="xMidYMin meet"><g class="icon icon--welcome-text"><g class="icon__welcome"><path fill="#766458" d="M165.422 70.001l-.203.229c-1.353 1.47-3.022 2.188-4.52 2.217l2.821-4.865c1.813-3.14.144-6.104-2.68-6.104-2.302 0-4.087.92-5.814 3.916l-1.468 2.562-1.227 2.098-.154.177c-2.159 2.506-4.262 4.491-5.586 4.491-.662 0-1.037-.461-.346-1.641l6.422-11.201h2.446l.864-1.44H153.5l2.822-4.893h-2.994l-2.822 4.895h-2.707l-.864 1.44h2.735l-6.02 10.423c-1.266 2.217-.373 4.262 2.045 4.262 1.739 0 3.662-1.31 5.512-3.084-.006 3.816 5.297 4.562 8.539.463h.661c1.785 0 4.606-1.094 6.134-2.907-.2-.405-.716-.865-1.12-1.038zm-6.392.203h-.145c-.98 0-1.756.806-1.756 1.785 0 .373.115.72.289 1.009l-.029.057c-1.41 2.42-4.838 1.958-3.053-1.151l2.274-3.944 1.44-2.447c2.102-3.57 4.98-2.159 3.166.95l-2.186 3.741zM206.877 70.001l-.201.229c-2.16 2.506-4.924 4.491-7.025 4.491-1.844 0-2.938-1.151-1.555-3.57l.287-.52c1.93.808 5.558.433 7.804-3.454l.432-.75c1.612-2.763.058-4.836-2.39-4.836-2.419 0-4.348 1.268-5.615 3.455l-2.906 4.984-.173.199c-2.16 2.504-4.261 4.49-5.586 4.49-.66 0-1.036-.461-.346-1.64l4.319-7.572c1.295-2.274.059-3.916-1.612-3.916-1.296 0-2.68.72-4.175 2.274l4.78-8.32h-2.995l-8.354 14.492-.168.191c-2.159 2.506-4.26 4.49-5.586 4.49-.662 0-1.037-.46-.345-1.64l6.42-11.201h2.447l.864-1.44h-2.476l2.822-4.893h-2.994l-2.822 4.895h-2.706l-.864 1.44h2.735l-6.019 10.423c-1.267 2.217-.373 4.262 2.045 4.262 1.213 0 2.517-.64 3.821-1.627l-.77 1.338h3.021l4.55-7.916c4.606-5.79 6.65-5.04 5.354-2.822l-3.888 6.767c-1.267 2.218-.373 4.263 2.045 4.263 1.781 0 3.757-1.375 5.646-3.217.145 1.864 1.653 3.217 4.055 3.217 3.396 0 6.766-2.649 9.242-5.529-.196-.404-.714-.864-1.118-1.037zm-5.701-4.204c1.729-2.965 4.781-2.477 2.996.634l-.433.75c-1.438 2.446-3.368 2.39-4.491 1.986l1.928-3.37zM316.047 70.001l-.201.229a18.798 18.798 0 0 1-3.6 3.254c.95-2.851.748-7.228 2.592-11.057l-2.246-1.21c-1.238 1.7-3.944 5.616-6.65 8.783v.001l-.2.229c-2.159 2.506-4.262 4.491-5.588 4.491-.66 0-1.035-.461-.343-1.64l6.391-11.202h-2.994l-5.326 9.3c-2.275 2.072-4.03 3.225-4.607 2.965-.748-.315 0-1.438.375-2.072l5.845-10.192H296.5l-4.695 8.124-.198.227c-1.353 1.47-3.022 2.188-4.52 2.217l2.821-4.865c1.813-3.14.147-6.104-2.678-6.104-2.304 0-4.09.92-5.815 3.916l-1.47 2.562-1.226 2.097-.155.178c-2.158 2.506-4.923 4.491-7.024 4.491-1.843 0-2.938-1.151-1.556-3.57l.29-.52c1.928.808 5.557.433 7.802-3.454l.434-.749c1.61-2.764.056-4.837-2.392-4.837-2.419 0-4.348 1.268-5.615 3.455l-2.903 4.984-.174.199c-2.478 2.851-4.607 4.69-6.97 5.7l6.709-11.46h-1.757c0-1.238-1.267-2.88-3.138-2.88-1.612 0-3.858 1.269-5.125 3.456l-2.872 4.957-.007-.004-.202.23c-2.158 2.504-4.261 4.49-5.585 4.49-.663 0-1.036-.461-.346-1.64l2.994-5.242c1.036-1.813.547-2.879-.433-4.06l-1.67-2.017c-.432-.547-.432-1.151.173-1.728l-1.554-1.699c-1.7 1.525-1.844 3.225-.778 4.607l.26.346c-1.324 1.872-3.11 4.404-5.068 6.71l.002.003-.2.229c-1.354 1.467-3.022 2.188-4.521 2.217l2.82-4.866c1.815-3.138.145-6.104-2.678-6.104-2.302 0-4.087.922-5.814 3.916l-1.47 2.562-1.228 2.101-.152.175c-2.477 2.851-4.607 4.69-6.969 5.7l6.71-11.46H226.8c0-1.238-1.267-2.88-3.139-2.88-1.611 0-3.857 1.269-5.125 3.456l-4.203 7.256c-1.268 2.217-.375 4.262 2.043 4.262.836 0 1.844-.375 2.852-1.008l-.835 1.41c-4.031 1.238-6.565 2.879-6.565 5.125 0 2.88 4.405 3.484 6.565-.2l2.274-3.946c2.396-.746 4.743-2.155 7.18-4.481-.02 3.832 5.294 4.585 8.54.479h.66c1.786 0 4.608-1.094 6.135-2.908 1.437-1.67 2.561-3.168 4.95-6.42l.402.49c.374.489.52 1.094.174 1.698l-3.168 5.5c-1.269 2.218-.375 4.263 2.045 4.263 1.519 0 3.177-.998 4.802-2.431-.05 1.392.879 2.43 2.597 2.43.834 0 1.843-.374 2.852-1.008L257 76.966c-4.031 1.238-6.563 2.88-6.563 5.125 0 2.88 4.405 3.483 6.563-.2l2.273-3.945c2.44-.762 4.83-2.215 7.316-4.617.134 1.875 1.645 3.236 4.057 3.236 2.438 0 4.859-1.367 6.947-3.2-.116 3.92 5.266 4.72 8.54.579h.663c.938 0 2.158-.31 3.33-.856-.806 2.08-.064 3.478 1.65 3.478 1.64 0 3.482-1.498 4.921-2.879-.287 1.61.662 2.879 2.563 2.879 2.476 0 5.326-2.648 7.804-5.528h-.002c1.698-1.96 3.196-4.06 4.262-5.47-1.181 3.108-.549 8.694-3.397 8.694-1.008 0-1.41-1.094-1.41-1.094l-1.872.979s.546 2.42 3.282 2.42c.287 0 .548-.029.834-.06.029 0 .06-.028.089-.028 3.05-.402 6.073-2.82 8.319-5.44-.172-.462-.69-.923-1.122-1.038zm-42.983-4.204c1.728-2.965 4.778-2.477 2.993.634l-.432.75c-1.44 2.446-3.37 2.39-4.492 1.986l1.931-3.37zm-57.177 15.606c-.633 1.123-1.641.951-1.641.145 0-.777.72-1.67 2.994-2.562l-1.353 2.417zm1.383-6.68c-.662 0-1.037-.46-.346-1.641l4.176-7.285c1.61-2.793 4.81-2.073 3.34.634l-2.273 3.974c-1.816 2.908-3.63 4.318-4.897 4.318zm18.397-4.519h-.146c-.978 0-1.755.806-1.755 1.785 0 .373.115.72.287 1.009l-.028.057c-1.41 2.42-4.837 1.958-3.052-1.151l2.273-3.944 1.44-2.447c2.103-3.57 4.98-2.159 3.168.95l-2.187 3.741zm18.827 11.199c-.635 1.123-1.642.951-1.642.145 0-.777.72-1.67 2.994-2.562l-1.352 2.417zm1.381-6.68c-.662 0-1.035-.46-.346-1.641l4.176-7.285c1.611-2.793 4.809-2.073 3.34.634l-2.274 3.974c-1.813 2.908-3.63 4.318-4.896 4.318zm29.54-4.519h-.145c-.979 0-1.756.806-1.756 1.785 0 .373.115.72.287 1.009l-.028.057c-1.41 2.42-4.837 1.958-3.052-1.151l2.273-3.944 1.44-2.447c2.102-3.57 4.98-2.159 3.168.95l-2.187 3.741z"/><path fill="#766458" d="M101.422 66.823h28.918v1.957h-28.918zM328.422 66.823h28.918v1.957h-28.918z"/><path fill="#81B3D3" d="M163.183 0h7.707l-1.209 44.918h-14.525l-1.975-18.545-1.975 18.545h-14.589L135.471 0h7.645l.637 37.152h.828L149.359 0h7.58l4.907 37.152h.765L163.183 0zM195.034 37.152v7.766h-20.896V0h20.896v7.7h-13.25v10.844h10.574v7.7h-10.575v10.908h13.251zM216.373 37.152v7.766H198.09V0h7.646v37.152h10.637zM232.617 28.36l7.708-1.796v13.604c0 2.567-2.166 4.749-4.714 4.749h-11.469c-2.61 0-4.713-2.182-4.713-4.749V4.749c0-2.632 2.103-4.749 4.713-4.749h11.467c2.55 0 4.715 2.117 4.715 4.749v9.112l-7.708 1.796V7.7h-5.543v29.452h5.543l.001-8.791zM261.089 0c2.55 0 4.716 2.117 4.716 4.749v35.42c0 2.567-2.166 4.749-4.716 4.749H249.62c-2.61 0-4.714-2.182-4.714-4.75V4.75c0-2.63 2.104-4.749 4.714-4.749h11.468zm-2.993 7.7h-5.544v29.452h5.544V7.7zM290.837 0h7.58v44.918h-7.646V22.844l-3.058 11.422h-7.453l-2.994-11.422v22.074h-7.646V0h7.581l6.817 21.688L290.837 0zM323.134 37.152v7.766h-20.896V0h20.896v7.7h-13.252v10.844h10.575v7.7h-10.575v10.908h13.252z"/></g><path fill="#FFF" d="M44.467 157.61c-3.572-2.98-8.139-4.963-12.902-4.963-3.572 0-8.338 2.084-8.338 6.253 0 4.368 5.26 6.055 8.636 7.146l4.964 1.49c10.422 3.076 18.461 8.336 18.461 20.446 0 7.446-1.787 15.088-7.742 20.15-5.855 4.964-13.697 7.048-21.24 7.048-9.43 0-18.66-3.177-26.305-8.537l8.338-15.683c4.865 4.269 10.621 7.742 17.27 7.742 4.567 0 9.431-2.283 9.431-7.545 0-5.459-7.643-7.344-11.812-8.535-12.208-3.475-20.249-6.65-20.249-21.143 0-15.188 10.818-25.112 25.807-25.112 7.543 0 16.775 2.382 23.426 6.154l-7.745 15.089zM91.832 154.831v12.506h21.937v16.48H91.832v12.899h23.127v16.48H72.377v-74.841h42.582v16.477H91.832v-.001zM129.418 138.354h27.594c20.844 0 38.016 16.377 38.016 37.42 0 21.04-17.271 37.42-38.016 37.42h-27.594v-74.84zm19.455 58.364h4.367c11.612 0 21.539-6.352 21.539-20.943 0-13.4-8.834-20.943-21.341-20.943h-4.565v41.886zM286.874 174.385c0 24.219-17.371 41.292-41.394 41.292-24.019 0-41.39-17.071-41.39-41.292 0-22.632 19.852-38.513 41.39-38.513 21.54 0 41.394 15.88 41.394 38.513zm-62.534.099c0 12.905 9.53 22.332 21.14 22.332 11.614 0 21.144-9.43 21.144-22.332 0-10.323-9.526-19.752-21.144-19.752-11.612 0-21.14 9.43-21.14 19.752zM297.24 138.354h19.453l35.636 45.757h.196v-45.757h19.454v74.84h-19.454l-35.634-45.857h-.198v45.856H297.24v-74.839zM407.346 200.191l-5.16 13.002H381.54l28.785-74.839h21.242l28.188 74.84H439.01l-4.863-13.003h-26.801zm13.6-38.71h-.199l-8.039 23.824h16.178l-7.94-23.824z"/><g class="icon__slogan" fill="#FFF"><path d="M108.081 287.741c7.658-2.589 8.242-12.18.693-12.18-2.08 0-4.56 1.459-6.272 4.448L92.29 297.66a14.72 14.72 0 0 1-1.458 2.15c-2.626-3.609-1.86-9.005 1.823-11.376l-1.532-1.935c-7.95 5.07-5.616 19.692 7.66 19.692 11.341.002 16.592-13.6 9.298-18.45zm-9.372 15.534c-2.26 0-4.048-.51-5.47-1.311.656-.767 1.312-1.715 1.896-2.698l6.381-11.051 1.021.108c8.9 1.863 5.362 14.952-3.828 14.952zm4.084-17.285l3.063-5.252c2.771-4.775 6.31-1.968 4.412 1.605-1.456 2.735-3.609 3.574-7.475 3.647z"/><path d="M140.161 300.002c-.629 2.248.572 4.076 3.146 4.076 1.53 0 3.428-.984 5.25-2.478.184 1.459 1.351 2.478 3.283 2.478 2.02 0 4.234-1.394 6.393-3.357-.42 2.048.541 3.357 2.41 3.357 2.08 0 4.414-1.896 6.236-3.646-.365 2.043.84 3.646 3.246 3.646 3.137 0 6.747-3.353 9.883-7.002-.025-.05-.068-.101-.1-.151 2.096-2.439 3.945-5.027 5.268-6.777-1.496 3.938-.693 11.014-4.305 11.014-1.275 0-1.787-1.387-1.787-1.387l-2.371 1.24s.693 3.063 4.157 3.063c.365 0 .692-.037 1.058-.072.037 0 .073-.035.11-.035 2.785-.37 5.549-2.065 7.942-4.226.058 2.495 1.994 4.333 5.145 4.333 4.303 0 8.57-3.353 11.707-7.002-.255-.512-.912-1.094-1.422-1.312l-.255.293c-2.735 3.172-6.236 5.687-8.897 5.687-2.334 0-3.72-1.459-1.97-4.521l.365-.657c2.442 1.02 7.038.547 9.883-4.377l.547-.947c2.042-3.502.073-6.127-3.026-6.127-3.063 0-5.508 1.605-7.111 4.375l-3.684 6.319c-.035-.012-.07-.037-.104-.046l-.255.292a23.697 23.697 0 0 1-4.56 4.12c1.204-3.609.949-9.152 3.283-14.003l-2.844-1.531c-1.568 2.15-4.996 7.11-8.425 11.122.033.046.074.09.11.137l-.135.155c-2.735 3.172-5.397 5.687-7.075 5.687-.838 0-1.312-.582-.438-2.078l8.096-14.187h-3.793l-6.747 11.779c-2.88 2.626-5.104 4.084-5.835 3.756-.947-.4 0-1.823.475-2.625l7.402-12.91h-3.793l-6.036 10.446c-.098-.062-.196-.123-.288-.162l-.255.292c-2.735 3.172-5.397 5.687-7.075 5.687-.838 0-1.312-.582-.438-2.078l6.127-10.723h-2.152c.146-1.604-1.494-3.83-3.975-3.83-2.042 0-4.887 1.606-6.49 4.377l-3.847 6.637a2.848 2.848 0 0 0-.577-.364l-.255.292c-2.735 3.172-6.236 5.687-8.897 5.687-2.334 0-3.72-1.459-1.97-4.52l3.901-6.782c2.188-3.757 6.054-3.137 3.791.8l-.547.95h3.101l.547-.95c2.042-3.5.073-6.127-3.026-6.127-3.063 0-5.508 1.606-7.111 4.377l-3.77 6.467a2.408 2.408 0 0 0-.348-.194l-.255.292c-2.735 3.172-6.236 5.687-8.897 5.687-2.335 0-3.72-1.459-1.97-4.52l.364-.657c2.443 1.021 7.039.546 9.883-4.375l.547-.95c2.042-3.5.073-6.127-3.027-6.127-3.062 0-5.507 1.606-7.11 4.377l-3.976 6.819c-2.37 4.049-.328 7.767 4.157 7.767 3.34 0 6.657-2.022 9.442-4.635-.098 2.647 1.865 4.635 5.141 4.635 3.1.006 6.176-1.734 8.828-4.07zm58.029-9.563c2.188-3.755 6.054-3.136 3.791.802l-.547.948c-1.822 3.1-4.267 3.027-5.688 2.516l2.444-4.266zM144 299.666l5.287-9.227c2.042-3.539 6.09-2.626 4.23.802l-2.954 5.18c-2.297 3.608-4.56 5.323-6.127 5.323-.837 0-1.312-.583-.437-2.078zm-24.185-9.227c2.188-3.755 6.054-3.136 3.791.802l-.547.948c-1.822 3.1-4.267 3.027-5.688 2.516l2.444-4.266zM248.398 304.078c4.304 0 8.573-3.353 11.707-7.002-.253-.512-.91-1.094-1.421-1.312l-.254.293c-2.737 3.172-6.237 5.687-8.9 5.687-2.335 0-3.721-1.459-1.971-4.521l.365-.657c2.444 1.02 7.038.547 9.883-4.377l.547-.947c2.042-3.502.074-6.127-3.027-6.127-3.061 0-5.505 1.605-7.11 4.375l-3.694 6.337c-.037-.018-.076-.048-.112-.063l-.256.293c-2.734 3.172-5.395 5.687-7.074 5.687-.839 0-1.311-.583-.438-2.079l5.47-9.59c1.642-2.882.073-4.962-2.043-4.962-1.642 0-3.392.912-5.287 2.882l6.054-10.54h-3.793l-10.697 18.56a2.429 2.429 0 0 0-.434-.251l-.256.292c-2.735 3.173-5.396 5.688-7.075 5.688-.838 0-1.312-.583-.438-2.079l8.133-14.186h3.1l1.096-1.825h-3.137l3.574-6.199h-3.793l-3.574 6.2h-3.428l-1.094 1.824h3.463l-7.622 13.203c-1.604 2.808-.474 5.396 2.59 5.396 1.884 0 3.94-1.217 5.961-2.974l-1.504 2.609h3.83l5.762-10.03c5.835-7.33 8.425-6.381 6.783-3.574l-4.923 8.572c-1.604 2.807-.474 5.395 2.59 5.395 2.304 0 4.863-1.811 7.303-4.22.111 2.44 2.041 4.222 5.144 4.222zm3.064-13.639c2.188-3.755 6.056-3.136 3.793.802l-.547.948c-1.824 3.1-4.269 3.027-5.69 2.516l2.444-4.266zM363.417 295.766l-.256.29c-2.731 3.173-5.395 5.69-7.074 5.69-.838 0-1.312-.584-.439-2.08l12.838-22.209h-3.793l-5.579 9.628c-.656-1.058-1.896-1.97-3.466-1.97-2.043 0-4.886 1.605-6.49 4.376l-3.713 6.406c-.079-.047-.16-.101-.235-.133l-.256.293c-2.733 3.172-5.395 5.687-7.074 5.687-.84 0-1.312-.583-.439-2.079l5.47-9.59c1.644-2.882.073-4.962-2.04-4.962-1.644 0-3.355.875-5.253 2.846l1.422-2.478h-3.793l-6.061 10.486a2.576 2.576 0 0 0-.36-.203l-.258.293c-2.733 3.172-5.395 5.687-7.073 5.687-.838 0-1.311-.583-.438-2.079l6.127-10.722h-2.152c.146-1.604-1.494-3.83-3.975-3.83-2.043 0-4.89 1.605-6.493 4.375l-3.666 6.33-.207.235c-2.733 3.172-5.395 5.687-7.073 5.687-.839 0-1.311-.582-.438-2.078l3.793-6.637c1.312-2.298.691-3.646-.547-5.142l-2.115-2.554c-.547-.692-.547-1.458.22-2.188l-1.97-2.15c-2.152 1.933-2.334 4.083-.986 5.834l.33.438c-1.678 2.37-3.94 5.58-6.42 8.497.074.107.163.215.258.321-3.125 3.593-5.781 5.918-8.763 7.19l4.813-8.242H286l-.4.659c-2.006 3.537-4.305 6.053-7.258 6.053-2.59 0-3.062-2.589-.803-6.455l1.059-1.86c.691.11 1.386.183 2.15.183 13.494 0 20.022-18.05 8.135-18.05-2.08 0-4.56 1.459-6.274 4.448l-5.907 10.175c-2.225-1.166-3.391-3.282-3.391-5.397 0-1.75.803-3.5 2.44-4.776l-1.237-2.226c-2.7 1.934-3.903 4.522-3.903 7.074 0 3.028 1.716 5.945 4.778 7.55l-1.131 1.97c-2.662 4.596-2.188 9.7 3.174 9.7 1.604 0 2.953-.473 4.12-1.204l-.986 1.715c-5.14 1.566-8.313 3.646-8.313 6.49 0 3.647 5.58 4.413 8.313-.255l2.918-4.996c3.94-1.24 7.806-3.938 11.964-8.752a2.305 2.305 0 0 0-.236-.356c1.684-1.979 3.113-3.889 5.972-7.776l.51.621c.474.62.656 1.386.218 2.152l-4.012 6.964c-1.605 2.806-.474 5.395 2.59 5.395 1.906 0 3.989-1.244 6.033-3.036-.044 1.745 1.148 3.036 3.31 3.036 1.532 0 3.429-.984 5.25-2.48.185 1.46 1.353 2.48 3.284 2.48 1.817 0 3.791-1.13 5.742-2.785l-1.398 2.42h3.828l5.799-10.103c5.799-7.255 8.389-6.308 6.746-3.5l-4.922 8.57c-1.603 2.81-.475 5.397 2.588 5.397 2.018 0 4.227-1.388 6.38-3.345-.2 1.9 1.009 3.345 3.296 3.345 1.531 0 3.428-.984 5.252-2.48.182 1.46 1.35 2.48 3.28 2.48 3.138 0 6.747-3.354 9.884-7.002-.257-.506-.912-1.09-1.425-1.306zm-77.962-14.152c1.131-1.932 2.371-2.771 3.43-2.771 6.017 0 1.787 12.253-8.133 12.253h-.766l5.47-9.482zm-8.059 28.591c-.8 1.422-2.078 1.204-2.078.184 0-.985.875-2.115 3.793-3.246l-1.715 3.062zm39.693-13.784c-2.299 3.608-4.56 5.323-6.127 5.323-.84 0-1.312-.583-.439-2.079l5.288-9.227c2.043-3.538 6.09-2.625 4.23.802l-2.952 5.18zm36.702-.22c-2.299 3.756-4.633 5.543-6.236 5.543-.838 0-1.312-.583-.438-2.079l5.287-9.228c2.043-3.537 6.09-2.625 4.23.803h.035l-2.878 4.961zM236.713 331.764l-.255.293c-2.733 3.172-5.396 5.688-7.074 5.688-.84 0-1.312-.583-.438-2.079l5.47-9.59c1.643-2.882.072-4.96-2.042-4.96-1.642 0-3.354.874-5.251 2.844l1.422-2.479h-3.793l-6.11 10.574a2.728 2.728 0 0 0-.485-.291l-.256.293c-1.713 1.858-3.83 2.771-5.725 2.808l3.573-6.163c2.297-3.976.183-7.73-3.392-7.73-2.918 0-5.178 1.167-7.367 4.96l-1.86 3.245-1.626 2.781a2.498 2.498 0 0 0-.343-.192l-.255.293c-3.137 3.608-5.8 5.942-8.789 7.221l10.395-17.797h-3.793l-6.71 11.67c-2.917 2.698-5.178 4.193-5.907 3.865-.948-.4 0-1.823.474-2.625l7.403-12.91h-3.793l-6.051 10.47a2.532 2.532 0 0 0-.332-.187l-.255.293c-2.735 3.172-5.397 5.688-7.075 5.688-.838 0-1.312-.583-.438-2.079l5.47-9.59c1.642-2.882.073-4.96-2.042-4.96-1.641 0-3.355.874-5.251 2.844l1.423-2.479h-3.794l-6.062 10.486a2.619 2.619 0 0 0-.36-.203l-.255.293c-2.734 3.172-5.396 5.688-7.075 5.688-.838 0-1.312-.583-.438-2.079l6.128-10.72h-2.152c.146-1.605-1.495-3.83-3.976-3.83-2.041 0-4.887 1.604-6.49 4.376l-3.918 6.763c-.26-.234-.559-.417-.83-.49l-.256.293c-2.735 3.172-6.09 5.688-9.848 5.688-2.588 0-4.156-2.589-1.896-6.455l1.058-1.86a13.64 13.64 0 0 0 2.151.185c4.048 0 8.644-2.08 11.634-7.295 1.057-1.86 1.531-3.61 1.531-5.104 0-3.429-2.225-5.652-5.032-5.652-2.08 0-4.56 1.46-6.272 4.449l-5.908 10.175c-2.225-1.167-3.393-3.282-3.393-5.397 0-1.75.803-3.501 2.443-4.776l-1.24-2.226c-2.699 1.935-3.902 4.52-3.902 7.075 0 3.026 1.715 5.944 4.777 7.549l-1.13 1.97c-2.661 4.596-1.094 9.7 4.267 9.7 4.242 0 7.354-1.889 9.969-4.372-.826 2.384.374 4.372 3.059 4.372 1.532 0 3.428-.984 5.252-2.479.182 1.46 1.35 2.479 3.281 2.479 1.816 0 3.792-1.129 5.742-2.783l-1.398 2.42h3.829l5.798-10.103c5.8-7.258 8.389-6.31 6.748-3.502l-4.923 8.568c-1.604 2.81-.474 5.396 2.589 5.396 2.04 0 4.282-1.425 6.465-3.423-.455 2.086.508 3.423 2.397 3.423 1.824 0 3.901-1.531 5.616-3.062l-2.08 3.574c-5.14 1.53-8.35 3.646-8.35 6.49 0 3.647 5.58 4.413 8.313-.255l2.917-4.996c3.171-.998 6.297-2.965 9.562-6.195-.523 5.297 6.533 6.505 10.787 1.126h.838c1.385 0 3.26-.523 4.953-1.455l-2.55 4.41h3.83l5.798-10.103c5.799-7.258 8.39-6.31 6.747-3.502l-4.923 8.57c-1.604 2.81-.475 5.397 2.59 5.397 3.138 0 6.746-3.354 9.883-7.002-.256-.513-.911-1.097-1.423-1.315zm-94.387-14.15c1.13-1.933 2.37-2.771 3.428-2.771 1.423 0 2.08.947 2.08 2.334 0 3.538-4.304 9.919-10.212 9.919h-.766l5.47-9.482zm13.355 14.807c-2.297 3.61-4.559 5.323-6.127 5.323-.838 0-1.312-.583-.438-2.079l5.288-9.227c2.042-3.537 6.09-2.625 4.229.803l-2.952 5.18zm28.851 13.783c-.803 1.423-2.079 1.204-2.079.185 0-.985.912-2.115 3.83-3.246l-1.75 3.061zm25.528-14.185h-.184c-1.24 0-2.225 1.022-2.225 2.263 0 .475.146.911.365 1.275l-.037.073c-1.786 3.062-6.127 2.48-3.865-1.46l2.881-4.995 1.823-3.1c2.663-4.522 6.309-2.735 4.012 1.203l-2.77 4.741zM324.621 333.077c-.219-.583-.875-1.167-1.422-1.312l-.256.293a23.62 23.62 0 0 1-4.56 4.12c1.204-3.61.948-9.153 3.282-14.004l-2.847-1.532c-1.565 2.151-4.995 7.11-8.423 11.123.005.01.016.018.021.025-.016-.007-.031-.02-.047-.025l-.254.293c-2.736 3.172-5.396 5.688-7.076 5.688-.838 0-1.64-.839-1.64-2.553v-1.568c2.662.328 5.47-1.423 7.257-4.521l1.02-1.75c3.536-6.054-2.226-8.061-6.091-4.521l5.395-9.373h-3.793l-10.815 18.767a3.06 3.06 0 0 0-.692-.46l-.257.294c-2.734 3.172-6.236 5.688-8.898 5.688-2.334 0-3.718-1.459-1.968-4.521l3.899-6.783c2.189-3.756 6.055-3.136 3.793.803l-.547.948h3.102l.548-.948c2.04-3.5.07-6.127-3.028-6.127-3.062 0-5.508 1.605-7.111 4.377l-3.733 6.404c-.078-.047-.16-.101-.233-.133l-.257.293c-2.733 3.172-5.395 5.688-7.073 5.688-.84 0-1.312-.583-.438-2.08l8.096-14.185h-3.794l-6.745 11.779c-2.884 2.625-5.104 4.084-5.836 3.756-.947-.4 0-1.823.475-2.625l7.402-12.91h-3.793l-7.365 12.744a22.67 22.67 0 0 1-2.45 1.952c1.204-3.61.948-9.153 3.282-14.004l-2.844-1.532c-1.568 2.15-10.321 13.75-13.75 17.761.327.474.876.948 1.423 1.313 2.15-2.48 9.372-11.78 10.723-13.566-1.496 3.938-.694 11.014-4.305 11.014-1.275 0-1.787-1.387-1.787-1.387l-2.37 1.24s.692 3.062 4.157 3.062c.365 0 .693-.036 1.059-.072.035 0 .072-.036.107-.036 1.928-.255 3.842-1.143 5.63-2.38-.01 1.543.92 2.488 2.51 2.488 2.077 0 4.413-1.896 6.235-3.646-.363 2.043.838 3.646 3.246 3.646 2.356 0 4.979-1.893 7.467-4.38.033 2.52 1.975 4.38 5.144 4.38 3.079 0 6.138-1.72 8.776-4.031l-2.113 3.668h3.83l4.34-7.55v3.026c0 3.244.619 4.887 3.682 4.887 3.137 0 6.748-3.354 9.885-7.002-.006-.01-.019-.021-.02-.034.015.013.03.023.046.034 2.153-2.48 4.049-5.142 5.396-6.93-1.493 3.939-.69 11.015-4.303 11.015-1.274 0-1.787-1.387-1.787-1.387l-2.371 1.24s.693 3.062 4.158 3.062c.362 0 .69-.036 1.06-.072.034 0 .069-.036.106-.036 3.866-.514 7.696-3.575 10.54-6.895zm-25.187-2.991l1.093-1.896c4.377-6.091 7.368-4.413 6.018-2.115l-1.822 3.136c-1.134 1.97-4.452 3.355-5.29.875zM324.475 335.665c-1.24 0-2.19.984-2.19 2.226s.95 2.188 2.19 2.188c1.237 0 2.224-.947 2.224-2.188 0-1.24-.987-2.226-2.224-2.226zM324.656 334.17h3.83l11.887-20.714h-3.79z"/><path d="M80.412 277.581a2.468 2.468 0 0 1-.676 1.676 2.602 2.602 0 0 1-.829.574 2.65 2.65 0 0 1-1.1.22 3.44 3.44 0 0 1-1.303-.252 2.95 2.95 0 0 1-1.064-.729 3.101 3.101 0 0 1-.575-1.049 4.013 4.013 0 0 1-.203-1.285c0-.855.15-1.646.457-2.368a5.995 5.995 0 0 1 1.302-1.929c.248-.248.53-.478.846-.693.315-.213.614-.394.896-.54.28-.147.523-.265.727-.354.203-.091.328-.147.373-.17l1.353 1.996c-.249.09-.524.209-.829.354a4.632 4.632 0 0 0-.861.54 2.95 2.95 0 0 0-.678.762c-.18.293-.281.633-.304 1.016.653 0 1.229.191 1.725.575.495.384.743.934.743 1.656zm7.866 0c0 .293-.057.587-.17.879-.112.293-.28.56-.506.796-.227.236-.502.43-.83.574a2.66 2.66 0 0 1-1.1.22c-.45 0-.885-.083-1.302-.252a2.94 2.94 0 0 1-1.065-.728 3.146 3.146 0 0 1-.574-1.049 4.052 4.052 0 0 1-.203-1.285c0-.855.152-1.646.457-2.368a6.02 6.02 0 0 1 1.302-1.929c.248-.248.528-.478.847-.692.314-.214.613-.393.896-.54.282-.146.524-.266.728-.355.204-.088.327-.146.372-.168l1.353 1.996a9.66 9.66 0 0 0-.828.353 4.573 4.573 0 0 0-.863.541 2.878 2.878 0 0 0-.676.761 2.13 2.13 0 0 0-.305 1.017c.653 0 1.229.19 1.725.574.494.383.742.933.742 1.655zM353.44 336.523c0-.294.056-.588.167-.88a2.4 2.4 0 0 1 .508-.795c.227-.237.502-.43.828-.575a2.66 2.66 0 0 1 1.1-.22c.451 0 .887.085 1.303.253.418.17.771.412 1.064.73.25.292.442.643.576 1.047.135.406.203.834.203 1.286 0 .855-.152 1.646-.457 2.367a6.034 6.034 0 0 1-1.302 1.928c-.248.248-.53.479-.849.693-.311.215-.61.395-.895.541-.282.146-.523.266-.729.355a9.13 9.13 0 0 0-.371.17l-1.354-1.996c.248-.09.523-.21.829-.355.304-.146.591-.327.862-.54.27-.216.496-.47.677-.763.181-.293.282-.631.304-1.014a2.73 2.73 0 0 1-1.724-.576c-.493-.382-.74-.936-.74-1.656zm-7.868 0c0-.294.057-.588.17-.88.113-.294.281-.559.506-.795.227-.237.504-.43.83-.575.326-.146.693-.22 1.1-.22.451 0 .884.085 1.302.253.416.17.772.412 1.065.73.248.292.44.643.574 1.047a4 4 0 0 1 .203 1.286 6.03 6.03 0 0 1-.457 2.367 6.003 6.003 0 0 1-1.3 1.928c-.249.248-.53.479-.847.693a9.33 9.33 0 0 1-.896.541c-.281.146-.523.266-.73.355a8.206 8.206 0 0 0-.37.17l-1.355-1.996c.25-.09.526-.21.83-.355.305-.146.592-.327.862-.54a2.94 2.94 0 0 0 .677-.763c.18-.293.282-.631.305-1.014a2.746 2.746 0 0 1-1.727-.576c-.494-.382-.742-.936-.742-1.656z"/></g></g></svg>