<svg xmlns="http://www.w3.org/2000/svg" viewBox="0 0 27 34"><path d="M13.636.578L13.5.564.5 1.92v23.732l13 7.704 13-7.704V1.921L13.636.578zM24.8 24.69l-11.3 6.697L2.2 24.69v-9.727l11.251 6.67.02 1.208-7.72-4.575-.01 1.174 7.749 4.638.019 1.241-7.747-4.59-.01 1.174 7.748 4.639 7.823-4.663V20.7l-.01.006v-3.833l3.487-2.074v9.891zm-.01-11.153l-3.09 1.814-1.428.838-6.806-4.033-.01 1.174 5.816 3.445-.051.03-.126.074-.826.485-4.803-2.846-.01 1.174 3.79 2.245-.894.596-.022.013-2.864-1.68-.01 1.173 1.878 1.102-1.914 1.145-11.195-6.628 11.211-6.712v.001l11.354 6.59zm.01-1.18l-11.361-6.67v-.002h-.003v.002L2.2 12.349V3.446l11.3-1.18 11.3 1.18v8.911z" fill="var(--icon-color, #000000)"/></svg>