<svg xmlns="http://www.w3.org/2000/svg" viewBox="0 0 18 18"><path d="M11.533 1.821c1.737-.484 3.074.264 3.685 1.15.694-.225 1.372-.47 2.072-.69-.004.841-.538 1.478-.883 1.728.704.165 1.343-.481 1.343-.481-.175.977-1.035 1.746-1.611 1.977-.239 6.592-3.272 10.955-10.382 10.823h-.46c-.422 0-4.29-.45-5.047-1.843 2.34.192 4.01-.412 4.835-1.15-.989-.292-2.76-.464-3.07-2.88.362.104.583.222 1.228.116C2.007 9.735.635 9.034.711 6.886c.294.32 1.1.523 1.38.461-.723-.235-2.028-3.281-.919-4.836C3.044 4.323 5.019 6.032 8.54 6.196c.216-2.24 1.17-3.74 2.993-4.375z" fill="var(--icon-color, #000000)"/></svg>