<svg xmlns="http://www.w3.org/2000/svg" viewBox="0 0 32 20"><path d="M29 0H3C1.35 0 0 1.35 0 3v14c0 1.65 1.35 3 3 3h26c1.65 0 3-1.35 3-3V3c0-1.65-1.35-3-3-3zM14.403 15.854a8.581 8.581 0 0 1-1.677.165 5.987 5.987 0 0 1-1.976-.324c-.623-.214-1.172-.561-1.645-1.04s-.852-1.103-1.133-1.869C7.69 12.02 7.55 11.091 7.55 10c0-1.134.157-2.085.47-2.85.316-.768.723-1.384 1.224-1.854a4.53 4.53 0 0 1 1.679-1.008 5.859 5.859 0 0 1 1.851-.307c.66 0 1.22.045 1.678.134.457.087.835.193 1.133.314l-.446 1.918a3.312 3.312 0 0 0-.903-.265A8.273 8.273 0 0 0 12.973 6c-.915 0-1.65.325-2.206.977-.558.65-.836 1.663-.836 3.03 0 .598.067 1.142.199 1.633.132.493.334.913.602 1.26.27.348.608.618 1.01.81.402.194.867.291 1.397.291.496 0 .915-.049 1.256-.148.342-.1.64-.227.893-.38l.463 1.84c-.353.251-.802.432-1.348.541zm8.698 0a8.59 8.59 0 0 1-1.678.165 5.987 5.987 0 0 1-1.976-.324 4.209 4.209 0 0 1-1.645-1.04c-.474-.48-.852-1.103-1.133-1.869s-.421-1.695-.421-2.786c0-1.134.157-2.085.47-2.85.315-.768.723-1.384 1.223-1.854a4.526 4.526 0 0 1 1.68-1.008 5.857 5.857 0 0 1 1.85-.307c.662 0 1.221.045 1.678.134.458.087.836.193 1.133.314l-.446 1.918a3.295 3.295 0 0 0-.901-.265A8.284 8.284 0 0 0 21.67 6c-.915 0-1.65.325-2.206.977-.558.65-.836 1.663-.836 3.03 0 .598.067 1.142.2 1.633.131.493.333.913.602 1.26.27.348.606.618 1.009.81.402.194.868.291 1.396.291.497 0 .915-.049 1.257-.148.342-.1.64-.227.893-.38l.463 1.84c-.352.251-.802.432-1.347.541z" fill="var(--icon-color, #000000)"/></svg>