<?xml version="1.0" encoding="utf-8"?>
<!-- Generator: Adobe Illustrator 22.1.0, SVG Export Plug-In . SVG Version: 6.00 Build 0)  -->
<svg version="1.1" id="Layer_1" xmlns="http://www.w3.org/2000/svg" xmlns:xlink="http://www.w3.org/1999/xlink" x="0px" y="0px"
	 viewBox="-0.00005 0.00002 459.754 350.07419" enable-background="new -0.00005 0.00002 459.754 350.07419" xml:space="preserve">
<g>
	<path fill="#766458" d="M165.42186,70.00101l-0.20311,0.229c-1.35249,1.4692-3.022,2.188-4.52049,2.2168l2.82179-4.8648
		c1.813-3.1391,0.144-6.104-2.6792-6.104c-2.3028,0-4.08789,0.9199-5.815,3.916l-1.4677,2.562l-1.2271,2.0982l-0.1543,0.1767
		c-2.15871,2.50591-4.2617,4.4913-5.58591,4.4913c-0.6617,0-1.0367-0.4615-0.3457-1.6412l6.4218-11.2011h2.4458l0.8643-1.44h-2.4771
		l2.82179-4.893h-2.99359l-2.8223,4.895h-2.707l-0.8638,1.4399h2.73489l-6.0191,10.4234
		c-1.26709,2.2168-0.37399,4.2617,2.04401,4.2617c1.7392,0,3.66209-1.3091,5.51219-3.084
		c-0.00589,3.8159,5.29691,4.562,8.539,0.4629h0.66121c1.78459,0,4.6059-1.0938,6.13379-2.90671
		C166.34175,70.63381,165.82515,70.17381,165.42186,70.00101z M159.02975,70.20411h-0.145c-0.979,0-1.7558,0.8057-1.7558,1.7851
		c0,0.3726,0.1152,0.7198,0.289,1.0088l-0.02879,0.0572c-1.4111,2.41889-4.83841,1.958-3.05321-1.1514l2.2739-3.9438l1.44-2.4468
		c2.10201-3.5694,4.9799-2.1592,3.166,0.9497L159.02975,70.20411z"/>
	<path fill="#766458" d="M206.87695,70.00101l-0.2012,0.229c-2.15959,2.50581-4.9238,4.4912-7.0249,4.4912
		c-1.84369,0-2.93799-1.1514-1.5547-3.5694l0.28671-0.52c1.9301,0.80721,5.55809,0.43221,7.8042-3.4551l0.4321-0.749
		c1.6118-2.7636,0.05809-4.83689-2.39011-4.83689c-2.41899,0-4.34819,1.2681-5.61479,3.4551l-2.9062,4.9839l-0.1729,0.1992
		c-2.15921,2.50391-4.2612,4.4897-5.58591,4.4897c-0.66119,0-1.03619-0.4609-0.34619-1.6406l4.3188-7.5713
		c1.29489-2.2739,0.0591-3.916-1.6118-3.916c-1.2959,0-2.6792,0.7202-4.17531,2.2744l4.7793-8.3203h-2.99409l-8.354,14.4922
		l-0.168,0.1909c-2.15869,2.50591-4.2607,4.4907-5.58589,4.4907c-0.6622,0-1.0372-0.4609-0.34531-1.6406l6.4205-11.20119h2.4467
		l0.8643-1.4399h-2.4761l2.82181-4.8931h-2.99411l-2.82179,4.8951h-2.7061l-0.86371,1.4399h2.7348l-6.019,10.4228
		c-1.26711,2.2173-0.37311,4.2623,2.04491,4.2623c1.21289,0,2.51709-0.6392,3.82129-1.627l-0.771,1.33791h3.022l4.54979-7.916
		c4.60591-5.7891,6.6499-5.0391,5.354-2.82181l-3.8882,6.76711c-1.2666,2.2178-0.37309,4.2627,2.04539,4.2627
		c1.78081,0,3.75681-1.375,5.64601-3.2168c0.14499,1.8638,1.6528,3.2168,4.0547,3.2168c3.396,0,6.7661-2.6489,9.24219-5.52881
		C207.79886,70.63381,207.28125,70.17381,206.87695,70.00101z M201.17575,65.79691c1.729-2.9649,4.7813-2.4771,2.99611,0.63419
		l-0.43311,0.74911c-1.438,2.4467-3.36771,2.3906-4.49071,1.9868L201.17575,65.79691z"/>
	<path fill="#766458" d="M316.04684,70.00101l-0.20111,0.229c-1.09579,1.29491-2.41998,2.4467-3.60059,3.25391
		c0.9502-2.8511,0.74899-7.2281,2.59271-11.0572l-2.24612-1.2089c-1.23819,1.6992-3.9433,5.6152-6.6503,8.7822v0.001l-0.2002,0.229
		c-2.1582,2.50581-4.2608,4.4912-5.58701,4.4912c-0.6611,0-1.0351-0.4614-0.34369-1.64111l6.3916-11.20119h-2.99411l-5.3262,9.3003
		c-2.27438,2.0718-4.03027,3.2246-4.60648,2.9648c-0.74802-0.3149,0-1.438,0.375-2.0722l5.84479-10.1919h-2.99521l-4.69528,8.124
		l-0.1972,0.227c-1.35349,1.46931-3.02249,2.188-4.52051,2.2173l2.82129-4.8652c1.8125-3.1392,0.14642-6.104-2.6778-6.104
		c-2.30469,0-4.08978,0.9199-5.8154,3.916l-1.4697,2.562l-1.22659,2.0972l-0.1543,0.1777
		c-2.1582,2.50591-4.9238,4.4912-7.02441,4.4912c-1.8428,0-2.93848-1.15129-1.55569-3.56929l0.28909-0.52
		c1.92871,0.80711,5.55762,0.43211,7.8027-3.4546l0.43359-0.749c1.61041-2.7642,0.0567-4.8374-2.39157-4.8374
		c-2.41891,0-4.3486,1.268-5.6152,3.455l-2.90332,4.9844l-0.17389,0.1987c-2.47751,2.8511-4.60641,4.691-6.9697,5.6993
		l6.70898-11.459h-1.75677c0-1.2383-1.26761-2.8794-3.1387-2.8794c-1.6113,0-3.85742,1.2681-5.125,3.4551l-2.87111,4.957
		c-0.002-0.001-0.00591-0.0029-0.0078-0.0039l-0.2012,0.23c-2.1582,2.50391-4.2617,4.4897-5.58591,4.4897
		c-0.66209,0-1.0352-0.4609-0.3457-1.6406l2.99411-5.2412c1.0361-1.813,0.54689-2.8789-0.4326-4.0601l-1.6709-2.0171
		c-0.4317-0.5468-0.4317-1.1508,0.1738-1.7275l-1.5547-1.6992c-1.6992,1.5249-1.8437,3.22509-0.7773,4.6069l0.2597,0.3462
		c-1.3242,1.87211-3.1093,4.40381-5.0683,6.709l0.00189,0.00391l-0.1992,0.229c-1.35449,1.4668-3.02238,2.188-4.5215,2.2168
		l2.8204-4.86571c1.81441-3.13819,0.1445-6.104-2.6778-6.104c-2.3027,0-4.08791,0.92181-5.81441,3.916l-1.47029,2.562
		l-1.22751,2.1011l-0.1523,0.1748c-2.4771,2.85101-4.60699,4.6909-6.9688,5.6992l6.709-11.459h-1.7563
		c0-1.2383-1.2666-2.8794-3.1387-2.8794c-1.6113,0-3.85699,1.2681-5.125,3.4551l-4.20309,7.2558
		c-1.2681,2.2173-0.375,4.2623,2.04289,4.2623c0.83601,0,1.8443-0.375,2.85211-1.0079l-0.83501,1.40971
		c-4.0312,1.2383-6.5649,2.8789-6.5649,5.125c0,2.8804,4.4048,3.4844,6.5649-0.20071l2.2739-3.94529
		c2.39601-0.74561,4.74321-2.1548,7.18021-4.4809c-0.021,3.832,5.2935,4.5849,8.5396,0.479h0.6611
		c1.7852,0,4.60739-1.09381,6.1338-2.90781l0,0c1.4375-1.6699,2.56149-3.16789,4.9502-6.4199l0.4023,0.4898
		c0.3741,0.4887,0.52051,1.0942,0.1739,1.6977l-3.168,5.5c-1.2686,2.2183-0.375,4.26321,2.04489,4.26321
		c1.5186,0,3.1768-0.998,4.8018-2.43111c-0.04979,1.39201,0.87891,2.43111,2.5976,2.43111c0.834,0,1.8428-0.375,2.85162-1.00881
		l-0.83603,1.40871c-4.03119,1.2383-6.56248,2.8794-6.56248,5.125c0,2.8804,4.4043,3.4834,6.56248-0.20071l2.2735-3.94429
		c2.4404-0.7617,4.83011-2.2149,7.3154-4.61671c0.13382,1.875,1.64551,3.2358,4.05762,3.2358c2.4375,0,4.8584-1.3667,6.94629-3.2007
		c-0.11618,3.92001,5.2666,4.7208,8.54102,0.57961h0.66208c0.93851,0,2.1582-0.30901,3.33011-0.8559
		c-0.8056,2.081-0.06351,3.478,1.64941,3.478c1.6416,0,3.48248-1.498,4.92188-2.87891
		c-0.28708,1.6108,0.66211,2.87891,2.5625,2.87891c2.47662,0,5.32623-2.6479,7.80472-5.52781l-0.00201-0.001
		c1.6973-1.959,3.1954-4.0591,4.26181-5.46919c-1.1817,3.10789-0.54889,8.6943-3.39749,8.6943
		c-1.00781,0-1.40921-1.0942-1.40921-1.0942l-1.87299,0.979c0,0,0.54688,2.41991,3.2822,2.41991
		c0.28708,0,0.54788-0.02881,0.83398-0.0601c0.0293,0,0.0596-0.0278,0.0889-0.0278c3.05072-0.4019,6.07321-2.81979,8.31931-5.4409
		C316.99704,70.57711,316.47855,70.11621,316.04684,70.00101z M273.06445,65.79691c1.72751-2.9649,4.77728-2.4771,2.99219,0.63419
		l-0.4317,0.74911c-1.43939,2.4467-3.36908,2.3906-4.4921,1.9868L273.06445,65.79691z M215.88725,81.40282
		c-0.6333,1.1231-1.6412,0.95119-1.6412,0.145c0-0.7768,0.7207-1.6699,2.9942-2.562L215.88725,81.40282z M217.27005,74.72311
		c-0.66209,0-1.03709-0.46089-0.34621-1.64109l4.17621-7.2851c1.6109-2.793,4.8091-2.0728,3.3399,0.63419l-2.27301,3.97371
		C220.35104,73.31301,218.53716,74.72311,217.27005,74.72311z M235.66695,70.20411h-0.14549c-0.9785,0-1.7558,0.8057-1.7558,1.7851
		c0,0.3726,0.11519,0.7198,0.28709,1.0088l-0.0274,0.0572c-1.4101,2.41889-4.83739,1.958-3.05269-1.1514l2.27339-3.9438
		l1.4395-2.4468c2.1035-3.5694,4.97951-2.1592,3.168,0.9497L235.66695,70.20411z M254.49416,81.40282
		c-0.63481,1.1231-1.64261,0.95119-1.64261,0.145c0-0.7768,0.7207-1.6699,2.9942-2.562L254.49416,81.40282z M255.87495,74.72311
		c-0.66211,0-1.03511-0.46089-0.3457-1.64109l4.1758-7.2851c1.61139-2.793,4.80859-2.0728,3.3399,0.63419l-2.2735,3.97371
		C258.95804,73.31301,257.14066,74.72311,255.87495,74.72311z M285.41504,70.20411h-0.14548
		c-0.97852,0-1.75592,0.8057-1.75592,1.7851c0,0.3726,0.11533,0.7198,0.28711,1.0088l-0.02731,0.0572
		c-1.41019,2.41889-4.83789,1.958-3.05267-1.1514l2.27338-3.9438l1.43942-2.4468c2.1026-3.5694,4.97949-2.1592,3.168,0.9497
		L285.41504,70.20411z"/>
</g>
<rect x="101.42185" y="66.82321" fill="#766458" width="28.918" height="1.9566"/>
<rect x="328.42184" y="66.82321" fill="#766458" width="28.918" height="1.9566"/>
<g>
	<path fill="#81B3D3" d="M163.18315,0.00002h7.707l-1.209,44.918h-14.5249l-1.9751-18.545l-1.9751,18.545h-14.5889l-1.14601-44.918
		h7.64511l0.6367,37.1518h0.82809l4.7778-37.1518h7.5811l4.90619,37.1518h0.76471L163.18315,0.00002z"/>
	<path fill="#81B3D3" d="M195.03415,37.15181v7.7662h-20.896v-44.918h20.896v7.7002h-13.2509v10.8437h10.57471v7.70019h-10.57471
		v10.9077H195.03415z"/>
	<path fill="#81B3D3" d="M216.37305,37.15181v7.7662h-18.28319v-44.918h7.646v37.1518H216.37305z"/>
	<path fill="#81B3D3" d="M232.61716,28.36082l7.70799-1.7968v13.604c0,2.5669-2.166,4.749-4.71381,4.749h-11.4693
		c-2.61079,0-4.71289-2.1821-4.71289-4.749v-35.419c0-2.6318,2.1031-4.749,4.71289-4.749h11.4673
		c2.5489,0,4.7149,2.1172,4.7149,4.749v9.1118l-7.70799,1.7964v-7.957h-5.543v29.4516h5.543L232.61716,28.36082L232.61716,28.36082z
		"/>
	<path fill="#81B3D3" d="M261.08884,0.00002c2.5498,0,4.71582,2.1172,4.71582,4.749v35.4199c0,2.5669-2.16602,4.7491-4.71582,4.7491
		h-11.46779c-2.61029,0-4.71379-2.1822-4.71379-4.7491V4.74902c0-2.6308,2.1035-4.749,4.71379-4.749H261.08884z M258.09576,7.70022
		h-5.54402v29.4516h5.54402V7.70022z"/>
	<path fill="#81B3D3" d="M290.83694,0.00002h7.58002v44.918h-7.64551v-22.0743l-3.05859,11.42239h-7.45312l-2.99408-11.42239
		v22.0743h-7.64551v-44.918h7.58099l6.81641,21.688L290.83694,0.00002z"/>
	<path fill="#81B3D3" d="M323.13376,37.15181v7.7662h-20.89551v-44.918h20.89551v7.7002h-13.25192v10.8437h10.57523v7.70019
		h-10.57523v10.9077H323.13376z"/>
</g>
<g>
	<path fill="#FFFFFF" d="M44.46675,157.60991c-3.5717-2.9791-8.1386-4.96289-12.9018-4.96289
		c-3.5718,0-8.3379,2.08389-8.3379,6.2529c0,4.36819,5.2607,6.05519,8.6357,7.146l4.9644,1.4892
		c10.4219,3.07671,18.4609,8.33701,18.4609,20.4473c0,7.4453-1.7871,15.08791-7.7422,20.1494
		c-5.8549,4.9639-13.6967,7.0479-21.2397,7.0479c-9.4302,0-18.6611-3.17679-26.3052-8.53709l8.3379-15.6826
		c4.8652,4.26851,10.6211,7.7421,17.271,7.7421c4.5659,0,9.4302-2.28319,9.4302-7.54489c0-5.459-7.6431-7.3447-11.812-8.5351
		c-12.208-3.4756-20.249-6.64951-20.249-21.1431c0-15.188,10.8178-25.1118,25.8071-25.1118
		c7.5429,0,16.7749,2.38179,23.4258,6.15379L44.46675,157.60991z"/>
	<path fill="#FFFFFF" d="M91.83205,154.83101v12.50591h21.93699v16.47949H91.83205v12.8994h23.12693v16.47951H72.37695v-74.8403
		h42.58203v16.47701H91.83205V154.83101z"/>
	<path fill="#FFFFFF" d="M129.41795,138.35402h27.5943c20.8437,0,38.01559,16.37689,38.01559,37.41939
		c0,21.041-17.271,37.41991-38.01559,37.41991h-27.5943V138.35402z M148.87305,196.7178h4.3672
		c11.6118,0,21.5386-6.35159,21.5386-20.9424c0-13.40039-8.834-20.94339-21.3409-20.94339h-4.56491V196.7178z"/>
	<path fill="#FFFFFF" d="M286.87405,174.38481c0,24.2187-17.37109,41.2919-41.3936,41.2919
		c-24.0195,0-41.39059-17.0712-41.39059-41.2919c0-22.6319,19.85199-38.5127,41.39059-38.5127
		C267.01956,135.87212,286.87405,151.75291,286.87405,174.38481z M224.33984,174.4839c0,12.9048,9.52931,22.3325,21.14061,22.3325
		c11.6133,0,21.1436-9.4297,21.1436-22.3325c0-10.3228-9.5264-19.75198-21.1436-19.75198
		C233.86815,154.73192,224.33984,164.16211,224.33984,174.4839z"/>
	<path fill="#FFFFFF" d="M297.23926,138.35402h19.4541l35.63568,45.75729h0.19632v-45.75729h19.45319v74.83929h-19.45319
		l-35.6347-45.8564h-0.1973v45.8564h-19.4541V138.35402z"/>
	<path fill="#FFFFFF" d="M407.34573,200.19141l-5.16019,13.00191h-20.64551l28.7851-74.83929h21.24222l28.1875,74.83929h-20.74512
		l-4.8623-13.00191H407.34573z M420.94626,161.48091h-0.19922l-8.039,23.82379h16.1777L420.94626,161.48091z"/>
</g>
<g>
	<path fill="#FFFFFF" d="M108.08105,287.74121c7.65771-2.5889,8.24219-12.18066,0.69287-12.18066
		c-2.0791,0-4.55907,1.45898-6.27197,4.44824l-10.2119,17.65131c-0.4751,0.83893-0.9473,1.53131-1.458,2.15042
		c-2.626-3.60931-1.8599-9.0058,1.8227-11.37689l-1.5317-1.9346c-7.9502,5.0694-5.6162,19.69238,7.65919,19.69238
		C110.12402,306.19342,115.375,292.5918,108.08105,287.74121z M98.70895,303.27542c-2.2607,0-4.0478-0.50983-5.4702-1.31152
		c0.6563-0.7666,1.312-1.71487,1.896-2.6983l6.3814-11.05078l1.021,0.1084
		C111.43701,290.18552,107.89893,303.27542,98.70895,303.27542z M102.79295,285.9902l3.063-5.25192
		c2.771-4.77539,6.3091-1.96875,4.41212,1.60449C108.81201,285.07809,106.65918,285.91702,102.79295,285.9902z"/>
	<path fill="#FFFFFF" d="M140.16115,300.00192c-0.62889,2.24808,0.57181,4.07617,3.14601,4.07617
		c1.5307,0,3.42769-0.98438,5.25-2.47849c0.1841,1.45901,1.35109,2.47849,3.2827,2.47849c2.01999,0,4.23439-1.39447,6.3931-3.35739
		c-0.42,2.0488,0.541,3.35739,2.4101,3.35739c2.08011,0,4.41411-1.89648,6.2359-3.64648
		c-0.36479,2.043,0.8398,3.64648,3.246,3.64648c3.1373,0,6.7471-3.35349,9.8829-7.00189
		c-0.0249-0.05078-0.0679-0.10159-0.1006-0.1514c2.09669-2.43851,3.9458-5.0264,5.26849-6.7764
		c-1.49559,3.9375-0.69279,11.0137-4.3047,11.0137c-1.2749,0-1.78709-1.38669-1.78709-1.38669l-2.37109,1.24017
		c0,0,0.69289,3.0625,4.15729,3.0625c0.3647,0,0.69191-0.03708,1.05811-0.07217c0.03661,0,0.07269-0.03522,0.1089-0.03522
		c2.7856-0.36908,5.5498-2.06448,7.94279-4.22559c0.05811,2.49509,1.9942,4.33298,5.145,4.33298
		c4.3028,0,8.5699-3.35349,11.70709-7.00189c-0.2549-0.51178-0.91209-1.09378-1.42189-1.3125l-0.2554,0.29291
		c-2.7348,3.17191-6.23579,5.6875-8.8969,5.6875c-2.334,0-3.7207-1.45901-1.9698-4.52151l0.36479-0.65619
		c2.44241,1.02051,7.0381,0.54691,9.8833-4.37698l0.54691-0.9472c2.0419-3.50201,0.07269-6.12701-3.02589-6.12701
		c-3.063,0-5.5083,1.60449-7.1114,4.375l-3.6835,6.31842c-0.0352-0.01172-0.0704-0.03711-0.104-0.04593l-0.2554,0.29202
		c-1.38669,1.64059-3.06299,3.09958-4.5591,4.12109c1.20311-3.60941,0.9482-9.1524,3.2822-14.00391l-2.84419-1.53131
		c-1.5679,2.15042-4.99561,7.11041-8.4248,11.1221c0.0332,0.04593,0.0742,0.09082,0.11081,0.13773l-0.13571,0.1543
		c-2.73489,3.17191-5.39699,5.6875-7.0752,5.6875c-0.83789,0-1.312-0.58212-0.438-2.07809l8.09621-14.1875h-3.793l-6.7471,11.7793
		c-2.8808,2.62589-5.104,4.08389-5.8349,3.7558c-0.9473-0.40042,0-1.8223,0.4751-2.625l7.40179-12.9101h-3.79289l-6.03619,10.4462
		c-0.09811-0.06152-0.1958-0.12302-0.28801-0.16211l-0.2549,0.29199c-2.73489,3.17191-5.397,5.6875-7.0752,5.6875
		c-0.83791,0-1.31151-0.582-0.438-2.07809l6.1274-10.72269h-2.1523c0.146-1.6044-1.4937-3.83002-3.9751-3.83002
		c-2.04201,0-4.8867,1.60541-6.49071,4.37689l-3.84619,6.63672c-0.1949-0.15131-0.3941-0.2851-0.57671-0.3642l-0.2554,0.29199
		c-2.73479,3.17178-6.23579,5.6875-8.8969,5.6875c-2.334,0-3.7207-1.45901-1.9707-4.52051l3.90181-6.78229
		c2.18799-3.75681,6.0542-3.13672,3.791,0.80078l-0.5468,0.94922h3.101l0.54689-0.94922c2.04201-3.5,0.0728-6.12689-3.02589-6.12689
		c-3.063,0-5.5083,1.60541-7.1113,4.37689l-3.77,6.4668c-0.1192-0.07709-0.2359-0.14648-0.34769-0.19427l-0.2553,0.29199
		c-2.73491,3.17178-6.23588,5.6875-8.89702,5.6875c-2.33496,0-3.7207-1.45901-1.9707-4.52051l0.36475-0.65729
		c2.44287,1.02148,7.03906,0.54691,9.8833-4.375l0.54688-0.94922c2.04199-3.5,0.0728-6.12689-3.02734-6.12689
		c-3.06153,0-5.50684,1.60541-7.10986,4.37689l-3.97607,6.81842c-2.37061,4.0488-0.32764,7.76758,4.15723,7.76758
		c3.34082,0,6.65675-2.02249,9.44189-4.6348c-0.09814,2.64651,1.86526,4.6348,5.14116,4.6348
		C134.43315,304.07809,137.50876,302.33792,140.16115,300.00192z M198.18996,290.43942c2.188-3.7558,6.0542-3.13672,3.791,0.80179
		l-0.54691,0.94821c-1.8222,3.0997-4.26711,3.0264-5.688,2.51569L198.18996,290.43942z M143.99905,299.66602l5.2881-9.22659
		c2.0419-3.539,6.0898-2.62692,4.229,0.80179l-2.9532,5.17969c-2.2968,3.6084-4.56,5.32321-6.12691,5.32321
		C143.59915,301.74411,143.12405,301.1611,143.99905,299.66602z M119.81494,290.43942
		c2.18799-3.7558,6.0542-3.13672,3.79101,0.80179l-0.54687,0.94821c-1.82227,3.0997-4.26709,3.0264-5.68799,2.51569
		L119.81494,290.43942z"/>
	<path fill="#FFFFFF" d="M248.39845,304.07809c4.3037,0,8.57231-3.35349,11.70699-7.00189
		c-0.25388-0.51178-0.9101-1.09378-1.42188-1.3125l-0.25391,0.29291c-2.73631,3.17191-6.23631,5.6875-8.90041,5.6875
		c-2.33391,0-3.7207-1.45901-1.9707-4.52151l0.3653-0.65619c2.44431,1.02051,7.03812,0.54691,9.8828-4.37698l0.54691-0.9472
		c2.04291-3.50201,0.07419-6.12701-3.0264-6.12701c-3.06149,0-5.5049,1.60449-7.1104,4.375l-3.6933,6.33691
		c-0.03711-0.01849-0.0762-0.04782-0.1123-0.06342l-0.25591,0.29291c-2.73439,3.17191-5.39549,5.6875-7.07419,5.6875
		c-0.8389,0-1.31151-0.58301-0.43851-2.0791l5.4707-9.59079c1.6416-2.8808,0.0723-4.96091-2.04291-4.96091
		c-1.64259,0-3.39259,0.91211-5.28709,2.88181l6.05371-10.54004h-3.793l-10.69681,18.56052
		c-0.147-0.10449-0.2973-0.1933-0.4341-0.25189l-0.2558,0.29199c-2.73541,3.17282-5.39601,5.68842-7.07521,5.68842
		c-0.83789,0-1.312-0.58301-0.438-2.0791l8.13281-14.18649h3.1011l1.0947-1.82422h-3.1367l3.5742-6.19922h-3.793l-3.5742,6.19922
		h-3.4277l-1.0943,1.82422h3.46291l-7.62201,13.20309c-1.60399,2.80859-0.47369,5.39648,2.58931,5.39648
		c1.8848,0,3.94089-1.2168,5.9619-2.97458l-1.50391,2.60941h3.83011l5.76169-10.0293c5.83501-7.33011,8.4248-6.38193,6.7832-3.57422
		l-4.92281,8.57129c-1.60449,2.80762-0.47459,5.39551,2.58881,5.39551c2.3047,0,4.8643-1.81158,7.3038-4.2207
		C243.36525,302.29691,245.29495,304.07809,248.39845,304.07809z M251.46196,290.43942
		c2.18839-3.7558,6.05559-3.13672,3.79289,0.80179l-0.5468,0.94821c-1.82431,3.0997-4.2686,3.0264-5.69051,2.51569
		L251.46196,290.43942z"/>
	<path fill="#FFFFFF" d="M363.41696,295.76559l-0.25583,0.29102c-2.73148,3.17191-5.39548,5.68851-7.07419,5.68851
		c-0.83789,0-1.31158-0.58301-0.43851-2.0791l12.83792-22.20898h-3.793l-5.5791,9.62799
		c-0.65622-1.05771-1.89651-1.96982-3.46582-1.96982c-2.043,0-4.88669,1.60449-6.49118,4.37601l-3.71191,6.4053
		c-0.0791-0.04691-0.16119-0.10062-0.23538-0.13281l-0.25592,0.29291c-2.73331,3.17191-5.39551,5.6875-7.07419,5.6875
		c-0.83981,0-1.31149-0.58301-0.43842-2.0791l5.4697-9.59079c1.64352-2.8808,0.07321-4.96091-2.04099-4.96091
		c-1.64359,0-3.35449,0.875-5.25201,2.8457l1.42191-2.47852h-3.793l-6.06149,10.4863
		c-0.12311-0.08109-0.24609-0.15237-0.36041-0.20309l-0.25677,0.29291c-2.7334,3.17191-5.39551,5.6875-7.07321,5.6875
		c-0.83789,0-1.31158-0.58301-0.43851-2.0791l6.12689-10.72159h-2.15128c0.14548-1.60452-1.4942-3.83011-3.97562-3.83011
		c-2.043,0-4.8887,1.60449-6.49219,4.375l-3.66602,6.33011l-0.207,0.23428c-2.7334,3.17191-5.3956,5.6875-7.0733,5.6875
		c-0.8389,0-1.31149-0.582-0.43848-2.07809l3.793-6.63669c1.3125-2.2988,0.69141-3.64651-0.54691-5.14261l-2.1152-2.55371
		c-0.54691-0.69238-0.54691-1.45798,0.2197-2.18851l-1.9697-2.15036c-2.1514,1.93356-2.33398,4.08398-0.98541,5.83496
		l0.33011,0.4375c-1.67868,2.37112-3.93939,5.58011-6.4209,8.4971c0.07422,0.10742,0.16409,0.21481,0.25879,0.32123
		c-3.125,3.59277-5.78119,5.918-8.7627,7.19049l4.8125-8.24222h-3.793l-0.4003,0.6582
		c-2.00589,3.53711-4.30469,6.05371-7.2579,6.05371c-2.58978,0-3.06149-2.5889-0.80267-6.45511l1.05859-1.85941
		c0.69141,0.1084,1.38669,0.18271,2.15039,0.18271c13.49411,0,20.02151-18.05081,8.1348-18.05081
		c-2.08011,0-4.56061,1.45898-6.2735,4.44824l-5.9072,10.17477c-2.22559-1.16602-3.3916-3.28119-3.3916-5.39651
		c0-1.75,0.80371-3.50092,2.44141-4.77631l-1.23831-2.22559c-2.69919,1.93359-3.90228,4.52148-3.90228,7.07422
		c0,3.02737,1.71579,5.94427,4.77728,7.54977l-1.1308,1.96973c-2.66208,4.59567-2.1875,9.7002,3.1738,9.7002
		c1.60452,0,2.95309-0.4736,4.12109-1.2041l-0.9863,1.7149c-5.14069,1.56638-8.31348,3.64648-8.31348,6.49017
		c0,3.64651,5.58008,4.41312,8.31348-0.25488l2.91791-4.99609c3.93951-1.2392,7.80569-3.93842,11.9639-8.75192
		c-0.0596-0.11719-0.14359-0.23727-0.2363-0.35648c1.68451-1.97852,3.11319-3.88861,5.97162-7.7753l0.5098,0.621
		c0.47458,0.6192,0.65628,1.38577,0.21878,2.1514l-4.01178,6.9639c-1.60541,2.80658-0.47461,5.39548,2.58987,5.39548
		c1.90622,0,3.98831-1.24417,6.0332-3.03607c-0.04489,1.74509,1.1474,3.03607,3.31052,3.03607
		c1.53128,0,3.4278-0.98438,5.25-2.47949c0.18359,1.45901,1.35159,2.47949,3.2832,2.47949
		c1.81641,0,3.79108-1.12988,5.74219-2.78519l-1.39838,2.4209h3.82809l5.7988-10.10349c5.79889-7.2558,8.3887-6.30862,6.74609-3.5
		l-4.92181,8.57028c-1.60361,2.80859-0.4747,5.39651,2.5878,5.39651c2.01761,0,4.22662-1.3887,6.38092-3.3457
		c-0.2012,1.90039,1.00778,3.3457,3.29489,3.3457c1.53131,0,3.4278-0.98441,5.25198-2.47952
		c0.18262,1.46002,1.35062,2.47952,3.28122,2.47952c3.13678,0,6.74609-3.35452,9.88278-7.00192
		C364.58496,296.56641,363.92966,295.98242,363.41696,295.76559z M285.45505,281.61426
		c1.13092-1.93262,2.37109-2.77148,3.42969-2.77148c6.01761,0,1.78711,12.25293-8.13278,12.25293h-0.76559L285.45505,281.61426z
		 M277.39645,310.20511c-0.80069,1.42181-2.07809,1.2041-2.07809,0.18359c0-0.98441,0.875-2.11429,3.793-3.24609
		L277.39645,310.20511z M317.08884,296.4209c-2.2988,3.6084-4.5596,5.32321-6.12689,5.32321
		c-0.8399,0-1.31158-0.58301-0.43851-2.0791l5.28711-9.22751c2.043-3.53708,6.08981-2.625,4.2305,0.8027L317.08884,296.4209z
		 M353.79105,296.2012c-2.29889,3.7558-4.63281,5.54291-6.23639,5.54291c-0.83792,0-1.31152-0.58301-0.4375-2.0791l5.28708-9.22751
		c2.043-3.53708,6.0899-2.625,4.22952,0.8027h0.03519L353.79105,296.2012z"/>
	<path fill="#FFFFFF" d="M236.71284,331.7637l-0.25479,0.29291c-2.7334,3.17191-5.3956,5.68851-7.07431,5.68851
		c-0.83978,0-1.312-0.58301-0.43799-2.0791l5.47119-9.59082c1.6416-2.88089,0.0713-4.95999-2.04289-4.95999
		c-1.6416,0-3.354,0.875-5.25101,2.84482l1.42191-2.47861h-3.793l-6.11081,10.5733c-0.16609-0.1192-0.33209-0.22562-0.48439-0.29102
		l-0.25591,0.29291c-1.71289,1.8584-3.8291,2.77148-5.7251,2.80859l3.5733-6.16309c2.2968-3.9765,0.18311-7.73041-3.39211-7.73041
		c-2.918,0-5.1778,1.16699-7.3672,4.9599l-1.85989,3.24509l-1.6259,2.78131c-0.1172-0.0752-0.2339-0.14551-0.3428-0.19241
		l-0.2554,0.29303c-3.13669,3.6084-5.7988,5.94238-8.78859,7.22168l10.39459-17.79691h-3.793l-6.709,11.66992
		c-2.918,2.6973-5.1787,4.19238-5.9077,3.86429c-0.9482-0.39941,0-1.8223,0.47411-2.625l7.40289-12.90921h-3.793l-6.0513,10.4697
		c-0.11279-0.07129-0.22699-0.14258-0.332-0.1875l-0.2549,0.29303c-2.73489,3.17279-5.397,5.68848-7.07469,5.68848
		c-0.83841,0-1.31201-0.58298-0.438-2.0791l5.4697-9.59088c1.64211-2.8808,0.0733-4.9599-2.04199-4.9599
		c-1.64111,0-3.3549,0.875-5.2509,2.8447l1.42279-2.47852h-3.7939l-6.062,10.48532
		c-0.12311-0.08102-0.24609-0.15231-0.35989-0.20312l-0.25491,0.29303c-2.73439,3.17279-5.396,5.68848-7.0752,5.68848
		c-0.83791,0-1.312-0.58298-0.438-2.0791l6.12801-10.7207h-2.1519c0.146-1.60449-1.4951-3.83008-3.9761-3.83008
		c-2.041,0-4.88669,1.60449-6.4897,4.37689l-3.918,6.7627c-0.26019-0.23428-0.5591-0.41699-0.83099-0.4902l-0.2554,0.293
		c-2.73489,3.17282-6.0899,5.68842-9.8477,5.68842c-2.5883,0-4.1562-2.58881-1.896-6.45502l1.05769-1.85938
		c0.6933,0.1084,1.38721,0.18457,2.15131,0.18457c4.0479,0,8.6441-2.08008,11.6338-7.29498
		c1.0571-1.85931,1.5313-3.60931,1.5313-5.10449c0-3.42871-2.2251-5.65131-5.0323-5.65131c-2.0791,0-4.5591,1.45898-6.2719,4.44818
		l-5.9082,10.17581c-2.2247-1.16699-3.39259-3.2822-3.39259-5.39749c0-1.75,0.80269-3.50092,2.44279-4.77631l-1.2402-2.22559
		c-2.6987,1.9346-3.90179,4.52048-3.90179,7.0752c0,3.02539,1.7148,5.9433,4.77679,7.5488l-1.1299,1.9707
		c-2.6611,4.5957-1.0937,9.69919,4.26711,9.69919c4.2417,0,7.35399-1.88861,9.9688-4.37201
		c-0.8257,2.3837,0.37399,4.37201,3.0591,4.37201c1.5322,0,3.42821-0.98428,5.25191-2.47849
		c0.1821,1.45898,1.3501,2.47849,3.2813,2.47849c1.8159,0,3.7919-1.12891,5.7417-2.7832l-1.39799,2.41989h3.8291l5.7979-10.10248
		c5.7993-7.25781,8.3891-6.31052,6.748-3.50192l-4.92281,8.56732c-1.6041,2.8096-0.4742,5.39648,2.58881,5.39648
		c2.041,0,4.2822-1.4248,6.46539-3.42279c-0.45509,2.08591,0.5078,3.42279,2.3969,3.42279c1.82381,0,3.90091-1.53119,5.61571-3.0625
		l-2.0791,3.57422c-5.1416,1.5303-8.35049,3.64648-8.35049,6.4903c0,3.64648,5.57959,4.41309,8.3129-0.25491l2.91699-4.99609
		c3.1709-0.99799,6.29691-2.96481,9.5621-6.19531c-0.52299,5.29691,6.5327,6.50491,10.78661,1.12601h0.83839
		c1.3847,0,3.2597-0.52249,4.95261-1.45508l-2.5498,4.4101h3.83009l5.79781-10.10251c5.7988-7.25781,8.38969-6.31052,6.7471-3.50201
		l-4.9229,8.5704c-1.604,2.80951-0.4751,5.39642,2.5899,5.39642c3.1377,0,6.74609-3.3544,9.8828-7.00192
		C237.87985,332.56641,237.22466,331.98242,236.71284,331.7637z M142.32616,317.6142c1.1299-1.9335,2.37059-2.77139,3.4278-2.77139
		c1.42281,0,2.0791,0.9472,2.0791,2.33389c0,3.53812-4.3033,9.91901-10.211,9.91901h-0.7661L142.32616,317.6142z
		 M155.68115,332.4209c-2.29739,3.60941-4.5591,5.32321-6.127,5.32321c-0.8383,0-1.312-0.58301-0.4379-2.0791l5.2876-9.22751
		c2.0419-3.5361,6.0903-2.625,4.229,0.80371L155.68115,332.4209z M184.53226,346.2041c-0.80321,1.42282-2.0791,1.2041-2.0791,0.1846
		c0-0.98441,0.91209-2.11429,3.8291-3.24609L184.53226,346.2041z M210.06006,332.0195h-0.18411
		c-1.24019,0-2.2251,1.02151-2.2251,2.2627c0,0.47461,0.14601,0.91122,0.36531,1.27441l-0.03711,0.0733
		c-1.78619,3.0625-6.127,2.47949-3.8653-1.45901l2.88139-4.99609l1.82271-3.10059c2.6631-4.52151,6.3091-2.73441,4.01219,1.2041
		L210.06006,332.0195z"/>
	<path fill="#FFFFFF" d="M324.62103,333.07712c-0.21869-0.58301-0.875-1.16702-1.42178-1.3125l-0.25589,0.293
		c-1.38672,1.6416-3.06439,3.10059-4.5596,4.12009c1.20319-3.60928,0.9473-9.15228,3.28128-14.00391l-2.84668-1.5322
		c-1.5654,2.1514-4.99512,7.1113-8.4238,11.12302c0.0058,0.0108,0.0166,0.01859,0.02148,0.02539
		c-0.01569-0.00681-0.03131-0.02051-0.04691-0.02539l-0.25391,0.293c-2.73627,3.17191-5.39648,5.68851-7.07617,5.68851
		c-0.83792,0-1.64062-0.83893-1.64062-2.5527V333.625c2.66211,0.32809,5.4707-1.42288,7.25781-4.52148l1.02051-1.75
		c3.53519-6.05371-2.22662-8.06052-6.0918-4.52051l5.39548-9.37299h-3.793l-10.8154,18.7666
		c-0.22949-0.19443-0.47559-0.36331-0.69238-0.45901l-0.25681,0.29291c-2.7334,3.17288-6.23541,5.68851-8.89749,5.68851
		c-2.33392,0-3.71872-1.45901-1.96872-4.52151l3.89941-6.7822c2.18851-3.75681,6.05469-3.13669,3.793,0.8027l-0.54691,0.9483
		h3.10159l0.54782-0.9483c2.04099-3.50092,0.07129-6.12689-3.02731-6.12689c-3.0625,0-5.50781,1.60449-7.11139,4.37689
		l-3.73242,6.4043c-0.07809-0.04779-0.1601-0.1015-0.2334-0.13379l-0.25681,0.293c-2.7334,3.17288-5.39548,5.68848-7.07327,5.68848
		c-0.83981,0-1.31152-0.58298-0.43842-2.0791l8.09659-14.18558h-3.79388l-6.74509,11.77838
		c-2.88382,2.625-5.10452,4.08389-5.83603,3.7558c-0.94717-0.39938,0-1.8222,0.4747-2.625l7.40231-12.90918h-3.793l-7.3652,12.74319
		c-0.81931,0.74609-1.6582,1.41309-2.44919,1.95218c1.20309-3.60938,0.9472-9.15237,3.28119-14.004l-2.84369-1.5322
		c-1.56842,2.1514-10.3213,13.75-13.75,17.76172c0.32709,0.47369,0.87599,0.9473,1.42279,1.3125
		c2.15041-2.47952,9.3721-11.7793,10.72269-13.5654c-1.49608,3.9375-0.69339,11.0137-4.30469,11.0137
		c-1.27539,0-1.78709-1.38672-1.78709-1.38672l-2.3701,1.2392c0,0,0.6924,3.0625,4.1572,3.0625
		c0.3652,0,0.69341-0.0361,1.05861-0.0722c0.0351,0,0.0723-0.03619,0.10739-0.03619c1.9277-0.25488,3.84181-1.14258,5.63091-2.37891
		c-0.01169,1.54202,0.91989,2.4873,2.5097,2.4873c2.0762,0,4.41208-1.89648,6.23441-3.64648
		c-0.36331,2.043,0.83789,3.64648,3.24609,3.64648c2.3555,0,4.97849-1.89349,7.4668-4.37988
		c0.0332,2.51959,1.97461,4.37988,5.1445,4.37988c3.07819,0,6.1377-1.7197,8.77539-4.03119l-2.11328,3.66791h3.83008l4.3399-7.5498
		v3.0264c0,3.24411,0.61911,4.88669,3.68262,4.88669c3.13669,0,6.74799-3.35449,9.88467-7.00189
		c-0.0058-0.0108-0.01849-0.02148-0.02048-0.03421c0.01569,0.01273,0.03128,0.02341,0.04688,0.03421
		c2.1524-2.47949,4.04883-5.14261,5.39551-6.92969c-1.4931,3.93848-0.6904,11.01459-4.3027,11.01459
		c-1.27438,0-1.78708-1.38669-1.78708-1.38669l-2.37112,1.23929c0,0,0.6933,3.0625,4.1582,3.0625
		c0.3623,0,0.6904-0.03619,1.0596-0.0723c0.03412,0,0.06931-0.0361,0.10641-0.0361
		C317.94724,339.45801,321.77734,336.39651,324.62103,333.07712z M299.43356,330.08591l1.09378-1.89551
		c4.37689-6.0918,7.36722-4.41309,6.01761-2.1152l-1.8223,3.13571C303.58884,331.18069,300.27145,332.56641,299.43356,330.08591z"/>
	<path fill="#FFFFFF" d="M324.47464,335.66501c-1.2403,0-2.18948,0.98441-2.18948,2.22559
		c0,1.24222,0.94919,2.18851,2.18948,2.18851c1.2373,0,2.22461-0.9473,2.22461-2.18851
		C326.69925,336.65042,325.71194,335.66501,324.47464,335.66501z"/>
	<polygon fill="#FFFFFF" points="324.65625,334.1709 328.48636,334.1709 340.37305,313.45602 336.58206,313.45602 	"/>
</g>
<g>
	<path fill="#FFFFFF" d="M80.41216,277.58105c0,0.29297-0.05811,0.58691-0.169,0.87891
		c-0.1133,0.29492-0.2822,0.55957-0.5073,0.79688c-0.2261,0.23633-0.5029,0.42871-0.82861,0.57422
		c-0.32719,0.14746-0.6944,0.2207-1.1001,0.2207c-0.4512,0-0.8863-0.08398-1.3032-0.25293
		c-0.417-0.1709-0.771-0.41211-1.064-0.72852c-0.25-0.29297-0.44-0.64355-0.57471-1.04883
		c-0.1362-0.40625-0.20309-0.83398-0.20309-1.28516c0-0.85547,0.15079-1.64648,0.457-2.36816
		c0.3037-0.72168,0.73679-1.36328,1.3017-1.92871c0.2481-0.24805,0.5293-0.47852,0.8462-0.69336
		c0.315-0.21289,0.6138-0.39453,0.896-0.54102c0.2808-0.14648,0.52299-0.26367,0.7271-0.35352
		c0.2026-0.09082,0.3276-0.14648,0.373-0.16992l1.3531,1.99609c-0.24911,0.08984-0.52451,0.20898-0.8291,0.35449
		c-0.3052,0.14746-0.5923,0.32715-0.8614,0.54004c-0.271,0.21484-0.4956,0.46875-0.6777,0.76172
		c-0.1802,0.29297-0.2813,0.63281-0.3042,1.01562c0.6533,0,1.229,0.19141,1.7251,0.5752
		C80.16405,276.30859,80.41216,276.85938,80.41216,277.58105z M88.27785,277.58105c0,0.29297-0.0567,0.58691-0.1699,0.87891
		c-0.1119,0.29297-0.2808,0.55957-0.50591,0.7959c-0.2271,0.23633-0.502,0.42969-0.8301,0.57422
		c-0.3271,0.14648-0.69289,0.2207-1.1001,0.2207c-0.4507,0-0.8847-0.08398-1.3017-0.25293
		c-0.417-0.16992-0.772-0.41113-1.065-0.72754c-0.248-0.29297-0.4389-0.64355-0.5742-1.04883
		c-0.1348-0.40625-0.20309-0.83398-0.20309-1.28516c0-0.85547,0.1523-1.64648,0.457-2.36816
		c0.3042-0.72168,0.7383-1.36328,1.3023-1.92871c0.248-0.24805,0.5278-0.47852,0.8466-0.69238
		c0.3145-0.21387,0.6133-0.39355,0.896-0.54102c0.2823-0.14551,0.5244-0.26465,0.7281-0.35449
		c0.2041-0.08789,0.3271-0.14551,0.372-0.16797l1.3531,1.99609c-0.2481,0.08984-0.523,0.20898-0.8282,0.35352
		c-0.3047,0.14648-0.5918,0.32617-0.8628,0.54102c-0.271,0.21387-0.4961,0.46777-0.6757,0.76074
		c-0.18221,0.29297-0.2823,0.63184-0.30521,1.0166c0.6528,0,1.229,0.19043,1.72511,0.57422
		C88.02975,276.30859,88.27785,276.85938,88.27785,277.58105z"/>
</g>
<g>
	<path fill="#FFFFFF" d="M353.43945,336.52341c0-0.29489,0.05658-0.58881,0.168-0.8808
		c0.11328-0.29401,0.2832-0.55859,0.50778-0.79501c0.2265-0.2363,0.50192-0.4296,0.82812-0.57419
		c0.32809-0.14648,0.69238-0.2207,1.09958-0.2207c0.4512,0,0.88672,0.08499,1.3028,0.25299
		c0.41791,0.16992,0.77142,0.41211,1.06442,0.7294c0.25,0.293,0.44138,0.64362,0.5762,1.04791
		c0.13467,0.40619,0.20309,0.83401,0.20309,1.2861c0,0.85449-0.15231,1.64551-0.457,2.36719
		c-0.30569,0.7207-0.73831,1.36331-1.3028,1.92783c-0.24802,0.24799-0.5293,0.47849-0.8486,0.6933
		c-0.31149,0.21487-0.61032,0.3945-0.89551,0.54099c-0.28131,0.14551-0.52249,0.26572-0.72849,0.35449
		c-0.20309,0.0889-0.32422,0.14651-0.37109,0.16992l-1.35352-1.99612c0.24799-0.08978,0.5224-0.20889,0.82809-0.3544
		c0.30469-0.14648,0.5918-0.32718,0.8623-0.54108c0.27051-0.21481,0.49609-0.46872,0.67679-0.7627
		c0.18161-0.29291,0.2822-0.63083,0.3046-1.01361c-0.6543,0-1.2294-0.19141-1.72458-0.5762
		C353.68744,337.79691,353.43945,337.24319,353.43945,336.52341z M345.57224,336.52341c0-0.29489,0.05673-0.58881,0.16992-0.8808
		c0.11328-0.29401,0.28128-0.55859,0.50589-0.79501c0.22659-0.2363,0.50391-0.4296,0.83011-0.57419
		c0.32608-0.14648,0.6933-0.2207,1.09958-0.2207c0.45123,0,0.8847,0.08499,1.3027,0.25299
		c0.41602,0.16992,0.77151,0.41211,1.06451,0.7294c0.24799,0.293,0.43939,0.64362,0.57419,1.04791
		c0.13672,0.40619,0.20309,0.83401,0.20309,1.2861c0,0.85449-0.15228,1.64551-0.457,2.36719
		c-0.3028,0.72171-0.73828,1.36331-1.30078,1.92783c-0.24802,0.24799-0.5293,0.47849-0.84671,0.6933
		c-0.31738,0.2139-0.6142,0.3945-0.89551,0.54099c-0.28119,0.14551-0.52338,0.26572-0.72949,0.35449
		c-0.20209,0.0889-0.3252,0.14651-0.37009,0.16992l-1.3555-1.99612c0.25-0.08978,0.52539-0.20889,0.83008-0.3544
		c0.30472-0.14648,0.59183-0.32718,0.8613-0.54108c0.27051-0.21481,0.49612-0.46872,0.67783-0.7627
		c0.17969-0.29291,0.28119-0.63083,0.30469-1.01361c-0.6524,0-1.22861-0.19141-1.72659-0.5762
		C345.82034,337.79691,345.57224,337.24319,345.57224,336.52341z"/>
</g>
</svg>
