<svg xmlns="http://www.w3.org/2000/svg" viewBox="0 0 63.002 75.083"><path d="M60.165 22.23H35.758C49.36 15.415 50.445 11.115 49.945 8.71c-1.144-3.916-5.603-6.938-9.847-5.34-5.485 2.062-7.03 10.26-8.514 16.19-1.894-5.999-3.726-13.65-8.01-17.526C22.33.91 20.523-.203 17.896.031c-3.965.352-9.652 5.317-7.344 10.849 2.217 5.313 9.539 8.67 14.354 11.35H2.834A2.843 2.843 0 0 0 0 25.065V36.25a2.842 2.842 0 0 0 2.835 2.834h.27v35.999h56.958V39.084h.104a2.841 2.841 0 0 0 2.835-2.834V25.065a2.846 2.846 0 0 0-2.837-2.835zm-18.4-16.357c2.07-.306 4.908 1.283 5.176 3.171.387 2.723-3.348 5.192-5.007 6.343-2.484 1.723-4.853 2.611-7.178 4.006.872-3.645 2.512-12.854 7.01-13.52zm-22.533 9.848c-2.19-1.467-6.444-4.378-6.342-7.678.11-3.552 5.655-6.491 8.68-3.839 3.797 3.331 5.625 10.972 7.01 16.357-3.2-1.519-6.23-2.753-9.348-4.84zm5.882 56.426H6.042V39.084h19.072v33.063zm0-36.063H3V25.23h22.114v10.854zm10.001 36.061h-7.063V25.23h7.063v46.915zm22.01.002H38.053V39.084h19.072v33.063zM60 36.084H38.053V25.23H60v10.854z"/></svg>