<svg
    xmlns="http://www.w3.org/2000/svg" viewBox="0 0 186.644 96.426" preserveAspectRatio="xMinYMin meet">
    <g class="icon icon--logo">
        <path class="icon__outer-contour" fill="#81B3D3" d="M186.644 0H0l80.487 90.474c7.06 7.936 18.61 7.936 25.67 0L186.643 0h.001z"/>
        <path fill="#23A9E1" d="M43.546.705l49.523 58.35 49.324-57.997L43.546.705z"/>
        <path class="icon__clouds" fill="#FFF" d="M122.327 17.316l-15.187.084c6.001-6.931 8.697-6.19 15.187-.084zm-42.771 5.358h28.277c-1.985-1.233-6.708-7.06-9.308-4.893-.212.178-7.505-8.848-12.296-4.5-4.179 3.8-6.12-.497-10.857 2.512-5.399 3.57 4.184 6.88 4.184 6.88v.001z"/>
        <path fill="#491213" d="M93.408 0h-50.92v22.464l50.58 61.523.34-.424 50.748-60.395V0H93.408zm0 57.052l-.34.409L46.197 1.777h94.417L93.408 57.052z"/>
        <path fill="#491213" d="M93.069 57.461l.339-.41 27.576-32.287c-6.913.949-11.864 6.077-18.604 4.956-3.396-.564-3.498-2.514-4.47-4.456-.745-1.493-1.936-1.303-3.486-1.91-1.442-.565-2.277-1.738-5.162-1.06-2.528.592-2.807 4.517-5.952 4.292-1.69-.121-1.811-2.497-4.244-5.539-6.302-7.57-12.158-6.523-16.247.475l30.25 35.939z"/>
        <path fill="#23A9E1" d="M89.049 70.899l4.02-6.5 4.004 6.5-4.004 6.515-4.02-6.515z"/>
        <path fill="#FFF" d="M65.768 32.249c.513.618.89 1.284.806 2.116-.059.579-.936 1.55-.27 1.846l2.242-2.834c-.602-.15-5.365-5.848-5.442-6.472l-3.16 1.734c.165.66 1.295.005 1.855.046.829.06 1.425.56 1.954 1.152-1.73 1.449-5.932 5.017-6.375 5.09-.226.036-1.088-.601-1.101-.056-.006.262.852 1.014 1.015 1.21.743.884 1.485 1.77 2.229 2.653.62-.282-.11-.732.205-1.243.232-.374 4.902-4.267 6.042-5.242zm-5.274-6.98c.444-.095.625.434.959-.056l-2.449-2.917c-.37-.442-.84-.916-.706.018.09.63-6.113 5.664-6.493 5.82-.48.197-.758-.417-1.11.097l2.194 2.608c.246.292.477.612.747.882.34.34.208-.672.224-.585-.09-.513.527-.948.855-1.228 1.545-1.361 5.398-4.588 5.78-4.639h-.001zm-8.77-.917c-1.767.523-3.65-.164-4.207-2.042-.543-1.835.614-3.757 2.071-4.801 1.439-1.032 3.59-.97 4.373.838.346.8.158 1.706-.094 2.502-.16.506-.597 1 .056 1.289l2.581-3.286c-1.055-.633-1.518-1.683-2.3-2.595-.882-1.07-2.064-2.08-3.482-2.284-2.87-.406-5.574 2.556-5.795 5.245-.136 1.457.374 2.848 1.246 4 .75.995 1.868 1.624 2.435 2.755.262.095 2.705-1.033 3.286-1.255-.052-.111-.089-.275-.17-.366-.76.226 0 0 0 0zm39.3 36.409c-1.15-.768-4.025-4.69-4.573-5.341-.108-.13-.22-.26-.33-.392-.01-.014-.283.225-.245.19-.173.146.134.574-.052.865-.793 1.24-5.758 4.983-6.016 5.163-.555.384-1.164-.159-1.489.316.719.854 2.78 3.543 3.02 3.582.478.078.147-.815.21-1 .123-.37 2.633-2.446 3.55-3.211.335-.281.687.426.887.722.327.485.475 1 .298 1.569-.116.37-.717.92-.25 1.174.619-.723 2.361-2.754 2.613-3.05.252-.292-.566-.036-.469-.086-.37.19-.718.235-1.063-.028-.096-.07-1.09-1.083-.99-1.167.431-.36.959-.962 1.517-1.1.862-.212 1.582 1.517 1.71 2.13.125.58.099 1.183-.077 1.75-.124.387-.487.696.018.93.712-.974 1.422-1.946 2.131-2.92a.7.7 0 0 1-.4-.096c-.127-.085.139.07 0 0zM80.8 56.63c2.205-1.855 2.482-5.053.769-7.339-1.867-2.49-5.371-3.096-7.804-1.052-2.204 1.854-2.49 5.047-.758 7.325 1.99 2.62 5.199 2.918 7.793 1.066 1.156-.975-.1.07 0 0zm-.464-4.753c-.648 1.51-2.202 3.063-3.733 3.667-1.818.715-3.1-.827-2.36-2.553.65-1.515 2.203-3.056 3.737-3.666 1.852-.735 3.066.846 2.356 2.552-.382.89.07-.169 0 0zm-5.98-9.856c.475.06.926.55 1.269.042-.742-.879-1.484-1.758-2.228-2.637-.595.269.047.55-.194.971-.244.427-2.56.78-3.176.89.224-.644.895-2.615 1.157-2.835.544-.445.883.432 1.283-.14l-2.743-3.254c-.31-.366-.56-1.028-.98-.68.038-.031.006 1.472-.09 1.733-.085.236-.935 3.638-1.925 4.47-.493.414-2.237 1.934-2.702 2.097-.541.189-.825-.598-1.22-.038l2.491 2.957c.125.148.602.863.767.893.521.094.06-.893.113-1.086.15-.43 2.5-2.719 3.497-2.859 1.461-.205 3.2-.702 4.681-.524.339.042-.352-.043 0 0z"/>
        <path fill="#DC6243" d="M68.096 22.858c-4.043-.167-2.351-3.954.395-4.808 2.611-.813 8.089 1.717 9.843 3.398-2.783.855-6.386.732-9.447.874-.226-3.12-.958-2.032-.79.536h-.001zm1.015 4.85c-2.04-1.579-1.396-5.266 1.763-4.146 4.005 2.084-.856 3.239-1.763 4.146 0 0 .042-.042 0 0zm8.488 7.699c-8.62-.071-2.792-13.322.14-12.521 3.374 1.073 2.996 12.622-.14 12.52v.001zm6.105-4.329c-.84 2.501-2.36 2.968-2.19-.07.193-3.503 2.478-2.662 4.929-4.004 2.04-1.12 3.139-5.214 6.64-2.765 1.563 1.093 3.353.18 3.852 1.833-.025-.084-4.545 10.308-2.031 10.308-4.961 0-2.773-5.922-.874-9.899-1.847.885-4.842 6.688-2.382 7.643-1.281 1.686-5.194 3.945-7.234 2.298-1.552-1.249-.692-3.325-.71-5.344zm4.105 9.603c-3.49 1.046-8.122-1.207-2.51-2.34 3.483-.704 7.187.778 2.51 2.34.14-.042-.128.043 0 0zm4.37-.141c-.736-1.658.562-3.635 2.68-2.2 1.847 1.253-.85 3.107-2.68 2.2zm-2.946 4.668c-2.411-.747-10.537-.56-5.218-2.764 1.64-.679 10.154.098 5.218 2.764zm3.215-.353c-.007-.96-.512-2.68 1.354-1.946 2.235.88-1.354 2.651-1.354 1.946 0 0 0-.169 0 0zm7.219 3.667c-1.437-1.227-2.891-1.295-4.229 0-1.795-3.293-8.318-2.19-11.366-2.65 1.639 4.028 14.864 4.78 15.595 2.65zM97.764 50.946c-3.151-.146-6.67-.563-9.646.084 1.86.466 6.396 1.795 2.172 2.918 1.515 2.168 3.973 2.03 5.584.127-.655-.322-1.01-.718-1.552-1.056 1.672-.304 3.234-1.268 3.442-2.073zM101.36 47.069c-5.288-3.112-3.95-5.427.354-7.586 2.254-1.13 7.324-5.208 9.447-3.85l-9.801 11.436z"/>
        <path fill="#F49774" d="M97.595 39.794c-4.48-4.602 6.689-4.18 8.487-5.797 1.311.437 10.768-8.283 13.07-7.741-1.654 1.94-5.219 8.136-7.774 8.136-1.964 0-3.95-.292-5.472 1.107-2.224 2.048-5.908 3.09-8.31 4.294l-.001.001z"/>
        <path fill="#F4B1A4" d="M99.062 34.167c-2.453 1.319-4.772-3.907-.537-3.398 2.813.338 5.662-.237 8.348.226-1.927 2.29-4.706 3.553-7.811 3.172z"/>
        <g fill="#FFF">
            <path d="M111.694 52.45c.191.649.299 1.332.215 2.01-.107.872-.979 2.924-2.173 2.339-1.17-.573-2.194-1.728-3.188-2.552.802-.935 1.507-1.749 2.854-1.295.37.123.688-.036.299-.262-.405-.234-3.114-1.964-3.261-1.798-.27.31.528.867.22 1.472-.228.448-.609.834-.931 1.22-.72-.608-1.923-1.254-1.057-2.257.542-.66 1.25-1.172 2.098-1.342.566-.114 1.84.39 2.006-.224l-3.258-1.565c.177.8-3.349 4.525-4.13 5.463-.114.138-.659.61-.665.798-.009.429.622.097.657.084.486-.18 6.816 5.109 6.973 5.47.1.282-.22.575-.03.732-.01-.01.23.217.254.185.391-.468 4.522-5.976 5.374-6.217a431.844 431.844 0 0 1-2.368-3.651c-.59.258-.019.948.11 1.39h.001zm-6.161 6.704c-2.077-1.34-5.596 1.279-6.125 1.53-1.04.492-1.79-.542-1.251-1.501.469-.83 1.393-1.235 2.31-1.29.277-.017 1.35.198 1.46.026.13-.202.227-.22.041-.346l-2.567-1.733c-.176 1.056-1.385 1.727-2.076 2.44-.822.855-1.52 1.931-1.52 3.157 0 1.134.679 2.142 1.677 2.66 1.136.592 2.317.116 3.324-.511.627-.392 1.254-.856 1.924-1.17.996-.468 2.304-.063 1.953 1.269-.282 1.073-1.351 2.061-2.405 2.34-.616.164-1.27.109-1.872-.09-.432-.142-.993-.735-1.23-.112 1.161.847 2.32 1.692 3.482 2.537.103-.76.522-1.09 1.086-1.563.735-.646 1.438-1.32 1.994-2.13 1.159-1.693 1.538-4.062-.205-5.514v.001z"/>
            <path d="M105.533 59.154c.925.597-.591-.495 0 0zm29.233-37.315c-.007.004-.007.004 0 0z"/>
            <path d="M142.224 19.629c-.73.729-8.42-2.34-8.982-2.764-.29-.116-.3-1.32-.705-.833-.404.488-.81.976-1.216 1.463l-1.256 1.513c-.26.314-.537.458-.038.72.837-.419 5.417 7.346 5.008 8.461-.725.376-6.915-5.057-7.081-5.415-.052-.146.273-1.021-.211-.945-.229.036-.743.896-.889 1.072l-.889 1.072c.332.485.517-.021.96.042.382.077 1.843 1.33 2.24 1.664-.725.027-2.685.131-2.934.113-.903.112-.422-.663-1.015-.931-.76.922-1.52 1.843-2.277 2.764l-1.326 1.607c-.054.065-.047.032.05.112.33.273.104.168.568.006.506-.177 6.56 4.93 6.776 5.19.377.45-.154.975.412 1.22.6-.727 1.197-1.456 1.797-2.183.091-.11.141-.1.02-.198-.426-.353-.475.212-1.001.154-.533-.089-4.395-3.369-5.895-4.61l8.199-.304c.3-.011 1.14.896 1.068 1.216-.081.378-.463.558.054.794.48-.575.985-1.149 1.456-1.734l.227-.282a.743.743 0 0 0 .21-.265l.168-.211c.425-.485 1.8-2.006 1.635-2.15-.461-.4-.685.466-1.298-.054-.348-.249-1.223-1.788-1.443-2.162-.264-.45.608-.897.964-1.119.776-.482 3.247-1.183 3.482.348.04.258-.271.55-.084.704.044.037.204.242.27.163.163-.197 2.361-2.843 3.3-3.969-.098-.082-.207-.224-.324-.269zm-7.374 2.156c.077-.049.153-.098 0 0l-.084.054.082-.052c-.345.22-.668.473-.958.761-.521-.897-1.044-1.795-1.564-2.693 1.177.49 2.352.985 3.524 1.481-.354.1-.69.251-1 .449zm-9.745 11.211c-2.375-1.979-5.63-1.404-7.586.832-1.903 2.312-1.712 5.663.605 7.615 2.34 1.926 5.67 1.438 7.572-.846 1.898-2.303 1.768-5.668-.591-7.6v-.001zm-.281 6.614l-.026.027c-1.232 1.292-3.358.096-4.505-.731-1.146-.83-3.11-2.57-1.856-4.104 1.056-1.287 3.124-.231 4.191.482 1.2.803 3.412 2.596 2.276 4.216.074-.09.126-.148-.08.11z"/>
            <path d="M125.105 32.996c1.17.96-.253-.211 0 0zm-.309 6.641l.026-.027c.03-.037.056-.073.08-.11-.049.061-.11.137-.106.137zm-6.282 2.483a3.493 3.493 0 0 0-.064-.057c-2.835-2.127-6.194-1.504-8.402 1.157-.988 1.189-1.976 2.378-2.96 3.567.35.512.762-.118 1.272.176.436.25 6.244 5.1 6.339 5.366.164.458-.255.548.144.875.172.143 4.536-5.245 4.935-6.191.69-1.755.14-3.678-1.265-4.893h.001zm-1.32 6.754c-.24.296-.043.054-.664.65-.306.293-6.438-4.675-6.192-4.944.835-.918 2.567-1.556 3.577-1.297 2.19.56 5.213 3.26 3.28 5.591h-.001z"/>
        </g>
        <path fill="none" d="M87.263 1.745h-5.092l5.092 2.49v-2.49zm10.869 0h-4.44V3.8l4.44-2.055zm-5.378 0h-4.241l4.241 1.963V1.745zm-18.747 0h-5.74l5.74 7.062V1.745zm6.91 4.583V1.744h-5.959l5.406 4.792.553-.21v.002zM67.365 1.745h-5.598l5.598 10.89V1.745zm57.775 18.452c-.162-.169-3.801-3.913-9.447-7.625-5.282-3.474-13.445-7.624-22.345-7.667-8.921-.05-16.97 4.087-22.157 7.566-5.631 3.779-9.18 7.61-9.214 7.648l-.076-.07m44.337-13.486l5.435-4.818h-5.945v4.63c.17.063.342.123.51.188zm18.639-4.818h-5.599v10.876l5.599-10.876zm-6.5 0h-5.74v7.008l5.74-7.008zm-13.903 0h-4.99v2.439l4.99-2.439zm20.438 1.643l-5.478 10.641a63.198 63.198 0 0 1 5.478 4.6V3.388zm-63.179.004V18.99c.832-.842 2.77-2.714 5.523-4.854L61.733 3.392zm13.058-.748V9.16a48.553 48.553 0 0 1 4.765-2.293l-4.765-4.223zm-1.035 7.097l-5.608-6.9v10.615a55.545 55.545 0 0 1 5.608-3.715zm38.098-7.109l-4.805 4.26a50.845 50.845 0 0 1 4.806 2.272V2.632h-.001zm6.642 10.708V2.836l-5.637 6.881a57.153 57.153 0 0 1 3.381 2.065 63.976 63.976 0 0 1 2.256 1.558zM104.944 2.387l-4.775 2.335c1.646.359 3.243.825 4.775 1.366V2.387zm-23.245 0v3.655a38.678 38.678 0 0 1 4.723-1.347l-4.723-2.308zm16.771.065l-3.357 1.552c1.125.072 2.245.202 3.357.388v-1.94zm-10.424-.06v1.994a32.025 32.025 0 0 1 3.465-.39l-3.465-1.604z"/>
        <path class="icon__bridge" fill="#491213" d="M49.733 5.978V1.745h-.784v3.303l.784.93zm75.961 13.568V1.744h-.817l-5.599 10.876V1.744h-.9l-5.74 7.008V1.744h-.965l-5.435 4.818c-.168-.065-.34-.125-.51-.188v-4.63h-1.254l-4.99 2.44v-2.44h-1.352l-4.44 2.055V1.745h-.938v1.963l-4.241-1.964h-1.25v2.49l-5.092-2.49h-1.254v4.583c-.184.07-.37.138-.553.209l-5.406-4.792h-.951v7.062l-5.74-7.062h-.902v10.89l-5.598-10.89h-.819v17.558l1.029 1.244s2.224-3.162 9.214-8.076c5.11-3.592 13.236-7.615 22.157-7.566 8.9.043 17.063 4.193 22.346 7.667 5.645 3.712 9.284 7.456 9.446 7.625m6.801-7.966V1.744h-.784v11.405m6.537-7.655v-3.75h-.783v4.668m-11.999-3.025v15.24a63.194 63.194 0 0 0-5.478-4.599l5.478-10.641zm-6.416-.552v10.504a63.966 63.966 0 0 0-2.256-1.558 57.15 57.15 0 0 0-3.38-2.065l5.636-6.881zm-6.641-.204v6.533c-1.49-.8-3.1-1.574-4.806-2.272l4.806-4.26v-.001zm-6.91-.245v3.7a39.997 39.997 0 0 0-4.776-1.365l4.775-2.335h.001zm-6.475.065v1.94a33.157 33.157 0 0 0-3.357-.388l3.357-1.552zm-10.424-.06l3.465 1.604a32.01 32.01 0 0 0-3.465.39V2.391zm-6.347-.005l4.723 2.308a38.678 38.678 0 0 0-4.723 1.347V2.386zm-6.908.257l4.765 4.223a48.554 48.554 0 0 0-4.765 2.293V2.643zm-6.643.197l5.608 6.9a55.538 55.538 0 0 0-5.608 3.715V2.84zm-6.415.55l5.523 10.745c-2.753 2.14-4.691 4.012-5.523 4.854V3.39zm-6.247 9.434V1.744h-.782v10.17l.782.91z"/>
    </g>
</svg>
