<svg
    xmlns="http://www.w3.org/2000/svg" viewBox="0 0 76 76">
    <g class="icon icon--gift" fill="var(--icon-color, #000000)">
        <path d="M66.664 22.689H42.257c13.602-6.815 14.687-11.115 14.187-13.52-1.144-3.916-5.603-6.938-9.847-5.34-5.485 2.062-7.03 10.26-8.514 16.19-1.894-6-3.726-13.65-8.01-17.526C28.829 1.369 27.022.256 24.395.49c-3.965.352-9.652 5.317-7.344 10.849 2.217 5.313 9.539 8.67 14.354 11.35H9.333a2.843 2.843 0 0 0-2.834 2.835v11.185a2.842 2.842 0 0 0 2.835 2.834h.27v35.999h56.958v-36h.104a2.841 2.841 0 0 0 2.835-2.833V25.524a2.846 2.846 0 0 0-2.837-2.835zm-18.4-16.357c2.07-.306 4.908 1.283 5.176 3.17.387 2.724-3.348 5.193-5.007 6.344-2.484 1.723-4.853 2.61-7.178 4.006.872-3.645 2.512-12.854 7.01-13.52h-.001zM25.731 16.18c-2.19-1.467-6.444-4.378-6.342-7.678.11-3.552 5.655-6.491 8.68-3.84 3.797 3.332 5.625 10.973 7.01 16.358-3.2-1.52-6.23-2.753-9.348-4.84zm5.882 56.426H12.541V39.543h19.072v33.063zm0-36.063H9.499V25.689h22.114v10.854zm10.001 36.06h-7.063V25.69h7.063v46.915zm22.01.003H44.552V39.543h19.072v33.063zm2.875-36.063H44.552V25.689h21.947v10.854z"/>
    </g>
</svg>
