<svg xmlns="http://www.w3.org/2000/svg" viewBox="0 0 74.695 72.346"><path d="M29.503 65.345h16V41.407h-16v23.938zm13.063-2.938H32.441V44.346h10.125v18.063z"/><path d="M72.62 39.44l2.075-2.078-9.907-9.912V.47H50.974v13.161L37.35.001 0 37.362l2.078 2.078 7.832-7.832v37.8H5.97v2.937h63.875v-2.938h-5.06v-37.8l7.834 7.832zM53.913 3.409h7.938v21.103l-7.938-7.94V3.409zm7.937 65.998H12.846V28.671L37.348 4.17 61.85 28.671v40.736z"/><path d="M29.753 27.21a7.75 7.75 0 1 0 15.5 0 7.75 7.75 0 0 0-15.5 0zm7.75-4.969a4.97 4.97 0 1 1 .001 9.94 4.97 4.97 0 0 1-.001-9.94zM16.909 41.407h3v3.938h-3zM22.846 41.407h3v3.938h-3zM16.909 47.407h3v3.938h-3zM22.846 47.407h3v3.938h-3zM48.846 41.407h3v3.938h-3zM54.784 41.407h3v3.938h-3zM48.846 47.407h3v3.938h-3zM54.784 47.407h3v3.938h-3z"/></svg>