<svg
    xmlns="http://www.w3.org/2000/svg" viewBox="0 0 76 76">
    <g class="icon icon--house">
        <g fill="var(--icon-color, #000000)">
            <path d="M30.155 67.172h16V43.234h-16v23.938zm13.063-2.938H33.093V46.173h10.125v18.063-.002z"/>
            <path d="M73.273 41.267l2.075-2.078-9.907-9.912V2.297H51.626v13.161L38.004 1.828.652 39.189l2.077 2.078 7.832-7.832v37.8h-3.94v2.937h63.875v-2.938h-5.06v-37.8l7.835 7.832v.001zM54.566 5.236h7.937v21.103l-7.937-7.94V5.236zm7.936 65.998H13.498V30.498L38 5.997l24.503 24.501v40.736z"/>
            <path d="M30.405 29.037a7.75 7.75 0 0 0 15.5.008v-.008a7.75 7.75 0 1 0-15.5 0zm7.75-4.969a4.97 4.97 0 1 1 .002 9.94 4.97 4.97 0 0 1-.001-9.94zM17.562 43.234h3v3.938h-3v-3.938zm5.938 0h3v3.938h-3v-3.938zm-5.938 6h3v3.938h-3v-3.938zm5.938 0h3v3.938h-3v-3.938zm26-6h3v3.938h-3v-3.938zm5.938 0h3v3.938h-3v-3.938zm-5.938 6h3v3.938h-3v-3.938zm5.938 0h3v3.938h-3v-3.938z"/>
        </g>
    </g>
</svg>
