<svg xmlns="http://www.w3.org/2000/svg" viewBox="0 0 76 76"><path d="M71.831 49.563H4.169a4.265 4.265 0 0 0-4.252 4.251v3.455a4.265 4.265 0 0 0 4.252 4.252h.956v1.037c0 5.457 4.464 9.922 9.92 9.922h45.91c5.455 0 9.92-4.466 9.92-9.923v-1.036h.956a4.265 4.265 0 0 0 4.252-4.252v-3.454a4.264 4.264 0 0 0-4.252-4.252zm-3.956 12.994c0 3.815-3.103 6.922-6.92 6.922h-45.91a6.929 6.929 0 0 1-6.92-6.921V61.52h59.75v1.036zm5.208-5.288c0 .679-.573 1.252-1.252 1.252H4.169a1.269 1.269 0 0 1-1.252-1.252v-3.454c0-.68.573-1.252 1.252-1.252h67.662c.679 0 1.252.572 1.252 1.251v3.455zM16.079 41.377l5.473 4 5.477-4 5.479 4 5.478-4 5.479 4 5.478-4 5.479 4 5.48-4 5.489 4 6.368-4.645-1.768-2.423-4.6 3.356-5.489-4-5.48 4-5.479-4-5.478 4-5.48-4-5.477 4-5.48-4-5.475 4-5.473-4.002-5.477 4.002L6.01 38.31l-1.77 2.422 6.363 4.645 5.476-4zm54.726-6.763c.04-.61.054-2.615.037-3C70.159 15.996 55.721 3.52 38 3.52c-17.72 0-32.16 12.476-32.842 28.095-.017.384-.004 2.389.039 3h65.608zM38 6.521c16.031 0 29.15 11.153 29.842 25.093H8.157C8.85 17.675 21.968 6.52 38 6.52z"/><circle cx="38" cy="18.563" r="2"/><circle cx="30" cy="13.604" r="2"/><circle cx="46" cy="13.604" r="2"/></svg>